<svg version="1.1" id="Layer_1" xmlns="http://www.w3.org/2000/svg" xmlns:xlink="http://www.w3.org/1999/xlink" x="0px" y="0px"
	 width="100%" viewBox="0 0 1033 433" enable-background="new 0 0 1033 433" xml:space="preserve">
<path fill="#FFFFFF" opacity="1.000000" stroke="none" 
	d="
M720.000000,434.000000 
	C480.000000,434.000000 240.500000,434.000000 1.000000,434.000000 
	C1.000000,289.666656 1.000000,145.333328 1.000000,1.000000 
	C345.333344,1.000000 689.666687,1.000000 1034.000000,1.000000 
	C1034.000000,145.333328 1034.000000,289.666656 1034.000000,434.000000 
	C929.500000,434.000000 825.000000,434.000000 720.000000,434.000000 
M47.009777,226.987015 
	C47.060368,240.645874 47.110962,254.304733 47.016426,268.887909 
	C47.064796,273.270782 47.113163,277.653687 47.011406,282.958557 
	C47.011406,313.223175 47.011406,343.487823 47.011406,374.000000 
	C65.680428,374.000000 83.819176,374.014008 101.957893,373.997131 
	C142.284531,373.959564 182.611176,373.906525 223.873550,373.974823 
	C234.604340,373.936981 245.335129,373.899170 256.987000,373.990204 
	C511.576660,373.990204 766.166321,373.990204 1021.000000,373.990204 
	C1021.000000,372.311127 1021.000000,371.169800 1021.000000,370.028473 
	C1021.000000,291.864655 1021.000732,213.700836 1020.993408,135.537018 
	C1020.993286,134.374374 1020.893494,133.211746 1020.983704,131.239532 
	C1020.935303,130.147552 1020.886902,129.055573 1020.988586,127.041588 
	C1020.988586,96.108963 1020.988586,65.176346 1020.988586,34.000000 
	C1018.814331,34.000000 1017.173157,34.000000 1015.531921,34.000000 
	C760.039062,34.000000 504.546234,33.999733 249.053406,34.005779 
	C247.389847,34.005817 245.726288,34.093323 243.127533,34.025188 
	C235.063080,34.063034 226.998611,34.100880 218.013046,34.009777 
	C161.089966,34.009777 104.166893,34.009777 47.140999,34.009777 
	C47.140999,75.345070 47.140999,116.142410 47.025372,157.874542 
	C47.063145,180.604996 47.100918,203.335464 47.009777,226.987015 
z"/>
<path fill="#000000" opacity="1.000000" stroke="none" 
	d="
M1020.840210,132.049103 
	C1020.893494,133.211746 1020.993286,134.374374 1020.993408,135.537018 
	C1021.000732,213.700836 1021.000000,291.864655 1021.000000,370.028473 
	C1021.000000,371.169800 1021.000000,372.311127 1021.000000,373.990204 
	C766.166321,373.990204 511.576660,373.990204 256.711700,373.602722 
	C260.905365,371.030212 266.305206,369.798431 269.684937,366.498016 
	C285.819061,350.742889 301.727722,334.722443 316.968903,318.110413 
	C321.008209,313.707764 324.120789,307.024109 324.644775,301.120300 
	C325.789246,288.225189 324.928802,275.157715 325.054504,262.162262 
	C325.081726,259.348938 323.487915,257.638702 321.433014,258.307831 
	C319.905334,258.805298 318.204651,261.548004 318.151062,263.337708 
	C317.841949,273.659149 318.093384,283.995667 317.968750,294.324860 
	C317.878693,301.788208 315.492950,308.661926 310.356415,314.030060 
	C295.579437,329.473267 280.572113,344.697845 265.534454,359.888733 
	C261.490021,363.974365 256.556061,366.269287 250.519012,366.055634 
	C243.695984,365.814148 236.816498,365.519958 230.035172,366.103638 
	C217.384369,367.192535 205.878876,356.335541 205.943192,341.958466 
	C206.111633,304.302216 205.997040,266.644714 206.010422,228.987732 
	C206.010971,227.411011 206.163895,225.834351 206.279495,223.610092 
	C214.355667,228.746262 222.796402,226.700958 230.945602,226.957199 
	C245.269516,227.407623 255.202774,220.143036 262.240875,208.311386 
	C265.668213,202.549774 269.063232,196.740128 271.995941,190.719879 
	C276.367157,181.746735 283.130798,178.278351 293.122406,178.720123 
	C297.634338,178.919647 302.628143,176.727386 306.755829,174.447815 
	C310.118622,172.590652 312.517059,168.987701 315.343964,166.159698 
	C321.160004,160.341431 330.473267,160.195724 336.432068,165.972961 
	C343.976196,173.287186 347.765228,182.377930 347.941986,192.779572 
	C348.176971,206.605362 347.835480,220.440674 348.047852,234.267197 
	C348.246460,247.197571 344.247742,258.463074 335.473328,267.912659 
	C333.256622,270.299927 333.870819,272.616669 335.822815,273.670349 
	C337.224243,274.426880 340.465149,273.833588 341.635254,272.628540 
	C349.519775,264.508453 354.611053,254.742676 354.885040,243.338440 
	C355.317139,225.353439 355.179016,207.348068 354.939270,189.355881 
	C354.769653,176.622955 349.023804,166.425247 339.526062,158.119812 
	C338.277466,157.027969 337.166656,155.054550 337.102386,153.445084 
	C336.497528,138.296906 333.438721,123.810913 324.903503,111.074593 
	C320.493774,104.494392 314.677429,99.555611 305.758087,99.928391 
	C297.659180,100.266876 289.534973,100.000000 280.751099,100.000000 
	C282.455658,89.326019 279.203461,81.015739 271.148804,74.586243 
	C268.001129,72.073639 258.756226,70.792328 254.694489,72.797211 
	C250.273483,74.979431 249.986053,79.077591 249.990616,83.314499 
	C250.011810,102.976089 250.015564,122.637756 249.970901,142.299271 
	C249.967270,143.898132 250.141739,146.078247 249.232071,147.000122 
	C243.258072,153.054123 238.537720,161.528976 227.688797,159.078964 
	C226.396744,158.787170 224.567001,159.184845 223.519775,159.972198 
	C222.455338,160.772522 221.322433,162.600937 221.550232,163.704407 
	C221.808243,164.954239 223.503159,166.780365 224.646149,166.835114 
	C233.048981,167.237534 241.752594,168.339905 247.631088,159.950470 
	C248.949249,158.069275 250.791229,156.512451 252.553665,154.993851 
	C256.613586,151.495621 258.056793,147.063385 258.033752,141.819183 
	C257.948822,122.491188 257.958618,103.162346 258.077423,83.834694 
	C258.087097,82.258675 258.778168,80.096313 259.916504,79.304268 
	C260.830322,78.668465 263.359802,79.176872 264.383392,80.075851 
	C269.455536,84.530624 275.141693,88.831779 273.027039,97.030357 
	C272.825623,97.811241 272.950958,98.693398 273.011810,99.522125 
	C273.350891,104.138924 276.360382,106.974983 281.005585,106.992409 
	C288.503540,107.020538 296.001984,107.039505 303.499695,106.985947 
	C308.377045,106.951111 312.472198,108.516663 315.755219,112.233574 
	C321.793427,119.069839 324.842834,127.362000 326.898041,135.977951 
	C328.272156,141.738724 328.673462,147.731552 329.660339,154.678085 
	C319.015503,151.885895 312.616241,156.419464 307.343140,163.197876 
	C302.450958,169.486588 296.285217,171.425171 288.312744,171.243515 
	C279.934967,171.052612 272.369476,174.295090 267.916687,182.340332 
	C264.667206,188.211426 261.431732,194.094788 257.996643,199.857437 
	C254.147476,206.314789 250.643021,212.960434 243.210114,216.468552 
	C235.082275,220.304672 226.552017,220.648666 218.059509,219.778854 
	C209.937286,218.946991 206.047379,214.302155 206.036591,206.796631 
	C205.966522,157.975922 205.898697,109.154716 206.074265,60.334553 
	C206.116684,48.535419 215.407684,41.110119 224.816360,41.932945 
	C229.281052,42.323399 233.809143,42.059292 238.306839,41.987720 
	C247.813797,41.836441 257.011841,44.200783 264.131744,50.025986 
	C275.515869,59.340000 285.939911,69.856316 296.430634,80.208092 
	C298.426453,82.177490 299.400848,85.656151 299.850464,88.591042 
	C300.345154,91.819992 301.004547,94.477608 304.732849,93.845825 
	C308.464539,93.213478 308.837189,89.644669 307.785797,87.129845 
	C305.684082,82.102837 303.478485,76.772644 299.958099,72.758224 
	C292.832520,64.632622 285.143219,56.911377 277.017395,49.786324 
	C272.066101,45.444839 266.121124,41.997196 260.150421,39.131607 
	C255.142776,36.728222 249.451385,35.749493 244.062729,34.139984 
	C245.726288,34.093323 247.389847,34.005817 249.053406,34.005779 
	C504.546234,33.999733 760.039062,34.000000 1015.531921,34.000000 
	C1017.173157,34.000000 1018.814331,34.000000 1020.988586,34.000000 
	C1020.988586,65.176346 1020.988586,96.108963 1020.543396,127.473007 
	C1009.931824,123.616951 999.648132,122.847145 989.370789,127.329758 
	C973.383179,134.303055 967.867920,148.407272 965.085083,164.080032 
	C964.058533,169.861465 963.969910,175.809418 963.425476,182.000000 
	C960.490906,182.000000 957.842163,181.999863 955.193481,182.000046 
	C947.112061,182.000595 947.112061,182.000626 946.387512,191.079926 
	C952.144104,191.079926 957.859497,191.079926 964.000000,191.079926 
	C964.000000,195.078705 964.000000,198.380203 964.000000,201.681702 
	C964.000000,222.334305 964.019226,242.986954 963.989014,263.639496 
	C963.978943,270.518433 963.123352,271.524780 956.605103,273.242523 
	C953.772095,273.989136 950.967102,274.841766 947.928345,275.709320 
	C948.105103,277.566956 948.254028,279.132111 948.396057,280.624390 
	C965.464172,280.624390 982.032043,280.624390 998.660522,280.624390 
	C998.660522,278.657104 998.660522,277.074646 998.660522,275.436981 
	C995.298584,274.776978 992.210999,274.273956 989.174927,273.553986 
	C982.244080,271.910370 982.003479,271.564850 982.001892,264.559021 
	C981.996826,241.907776 981.993958,219.256546 982.011658,196.605316 
	C982.013062,194.849060 982.181091,193.092926 982.297363,190.837677 
	C990.768127,190.837677 998.693298,190.837677 1006.593201,190.837677 
	C1007.274780,187.669388 1007.845520,185.016052 1008.530884,181.829987 
	C999.144897,181.829987 990.378967,181.829987 980.304077,181.829987 
	C981.229492,169.505478 981.743164,157.649887 983.146667,145.900604 
	C983.956177,139.124023 987.347412,136.406036 994.085205,137.206024 
	C999.671143,137.869278 1005.080933,140.225815 1010.490906,142.061462 
	C1012.748230,142.827362 1014.803955,144.187317 1017.437317,145.523773 
	C1018.696777,140.536560 1019.768494,136.292831 1020.840210,132.049103 
M455.000305,152.500015 
	C453.315552,155.915421 451.348206,159.222443 449.990082,162.763168 
	C437.481110,195.374954 425.038452,228.012375 412.675415,260.679779 
	C410.122559,267.425232 407.267120,273.434784 398.826752,274.235413 
	C395.012024,274.597290 394.095734,277.154480 395.662445,280.660034 
	C409.035461,280.660034 422.276367,280.660034 435.701813,280.660034 
	C435.701813,278.733978 435.701813,277.148804 435.701813,275.419067 
	C430.082733,274.079102 424.696136,272.794586 418.953552,271.425140 
	C423.847260,257.806915 428.506531,244.546799 433.505249,231.415894 
	C433.971222,230.191895 436.577301,229.126907 438.205139,229.104340 
	C451.532196,228.919724 464.866821,229.178070 478.190094,228.886902 
	C481.974762,228.804184 483.575958,230.395432 484.735962,233.479370 
	C487.067017,239.676865 489.545319,245.818939 491.881287,252.014633 
	C494.301422,258.433533 496.624969,264.888824 499.116608,271.670624 
	C492.997528,273.046478 487.580353,274.264557 481.928223,275.535431 
	C482.105896,277.535339 482.244995,279.101105 482.381470,280.637512 
	C514.765747,280.637512 546.669312,280.637512 578.680908,280.637512 
	C578.680908,278.683990 578.680908,277.094513 578.680908,275.425720 
	C576.334717,274.875946 574.242859,274.421356 572.169617,273.893524 
	C565.047058,272.080261 564.001465,270.694824 564.000854,263.129669 
	C563.998596,236.970306 564.000000,210.810944 564.000000,184.651581 
	C564.000000,182.920883 564.000000,181.190170 564.000000,179.005676 
	C553.166443,181.403259 543.184631,183.560272 533.241455,185.882751 
	C532.079407,186.154175 531.130676,187.339005 530.083069,188.100388 
	C531.093811,189.038071 531.959778,190.272995 533.145813,190.850754 
	C535.517883,192.006210 538.007507,193.018906 540.553406,193.696503 
	C544.704590,194.801376 545.991638,197.683319 545.993652,201.524109 
	C546.005188,223.184723 546.076721,244.846085 545.867981,266.504700 
	C545.849060,268.471985 544.479309,271.467468 542.903564,272.204926 
	C534.432739,276.169250 520.940247,276.240540 516.598877,264.387360 
	C508.515686,242.318237 499.740845,220.502945 491.307526,198.561356 
	C483.765808,178.939331 476.326996,159.277603 468.715149,139.682983 
	C468.281158,138.565811 466.653564,137.151245 465.651428,137.203979 
	C464.328583,137.273590 462.567566,138.360809 461.883514,139.530289 
	C459.537537,143.541397 457.579559,147.779434 455.000305,152.500015 
M632.253784,273.185577 
	C628.528809,272.419891 623.246948,273.181061 623.134094,267.654480 
	C622.795105,251.057007 623.012024,234.448166 623.012024,217.243881 
	C632.180420,221.358643 640.759583,223.832199 650.726624,222.291351 
	C669.258972,219.426361 683.591614,207.034790 687.564514,188.930939 
	C690.755981,174.388382 689.291504,161.149765 677.288879,150.849335 
	C668.327393,143.158707 657.353455,140.397964 645.958435,140.118774 
	C627.817688,139.674301 609.658020,140.000015 591.506348,140.000015 
	C589.880615,140.000015 588.254883,140.000015 586.543579,140.000015 
	C585.596069,143.749329 585.913879,145.989456 590.101318,146.084320 
	C592.054321,146.128555 594.005066,146.705353 595.937927,147.127213 
	C601.296326,148.296799 602.996582,150.470718 602.997437,156.130600 
	C603.002502,190.435593 603.000000,224.740601 603.000000,259.045593 
	C603.000000,271.565704 603.002930,271.580383 590.514709,274.053070 
	C586.832153,274.782166 584.731445,276.376160 586.694641,280.723907 
	C604.871521,280.723907 623.103638,280.723907 641.660522,280.723907 
	C641.660522,278.898773 641.660522,277.322723 641.660522,275.403595 
	C638.773621,274.771667 635.903442,274.143372 632.253784,273.185577 
M784.133179,208.849121 
	C780.410645,219.990860 778.922852,231.375595 781.063782,243.000610 
	C783.638123,256.978851 789.183167,269.363647 802.008057,276.939117 
	C813.572693,283.770203 826.057922,285.636810 839.210327,282.411377 
	C852.872620,279.060913 862.803223,271.274017 869.267700,258.605988 
	C875.479492,246.432983 876.154968,233.583893 874.814148,220.535385 
	C873.672913,209.429520 869.424622,199.156479 861.516296,191.202515 
	C847.239380,176.843231 825.272888,175.010941 808.083008,182.497711 
	C796.512390,187.537109 789.038452,196.560944 784.133179,208.849121 
M918.000061,174.421432 
	C918.328857,166.137482 918.830994,157.855865 918.943237,149.568985 
	C919.087036,138.948929 925.822815,134.678574 936.655945,137.914764 
	C941.191284,139.269608 945.366821,141.832703 949.699097,143.860992 
	C951.715332,144.804977 954.013855,146.086807 954.834473,142.759933 
	C955.963867,138.181381 956.672729,133.499115 957.574707,128.793793 
	C948.560913,124.219948 939.789551,123.118744 930.350220,125.728065 
	C914.453857,130.122330 906.948547,141.891846 903.191895,156.571182 
	C901.124146,164.651154 900.528137,173.107788 899.181519,181.968018 
	C894.472900,181.968018 889.549194,181.968018 884.390015,181.968018 
	C883.825439,185.108688 883.354187,187.730026 882.756531,191.054504 
	C888.908936,191.054504 894.163330,191.054504 899.120117,191.054504 
	C899.550537,191.899811 899.823303,192.185913 899.824097,192.472763 
	C899.893616,217.463791 900.044861,242.455948 899.783997,267.443787 
	C899.764526,269.307892 897.126404,271.906494 895.100464,272.816254 
	C891.732056,274.328918 887.872742,274.748474 883.956116,275.692017 
	C884.106506,277.502472 884.236877,279.071594 884.367249,280.640808 
	C901.743713,280.640808 918.651062,280.640808 935.676758,280.640808 
	C935.676758,278.696350 935.676758,277.112732 935.676758,275.555847 
	C931.854126,274.695770 928.360657,273.495239 924.792908,273.203735 
	C919.371582,272.760681 917.919922,269.868439 917.946289,264.927338 
	C918.067993,242.098724 917.994751,219.269089 918.010986,196.439850 
	C918.012146,194.820999 918.171021,193.202255 918.287415,191.000000 
	C924.394714,191.000000 930.177063,191.000381 935.959351,190.999908 
	C943.741943,190.999268 943.742676,190.998337 944.654236,181.991302 
	C935.898499,181.991302 927.189697,181.991302 918.000000,181.991302 
	C918.000000,179.319550 918.000000,177.357849 918.000061,174.421432 
M744.298218,280.999908 
	C745.740906,280.891693 747.183594,280.783447 748.661011,280.672638 
	C748.661011,278.658447 748.661011,277.075928 748.661011,275.466858 
	C744.329895,274.573883 740.291321,273.787201 736.275452,272.898041 
	C733.322876,272.244293 731.910522,270.617950 731.934204,267.284332 
	C732.070374,248.127594 731.979553,228.969315 732.042664,209.811813 
	C732.047302,208.398865 732.236145,206.647110 733.056458,205.632965 
	C737.419312,200.239273 742.690613,195.998016 749.598206,194.282944 
	C759.125305,191.917496 764.690857,194.380371 768.505615,203.259811 
	C770.344055,207.539200 772.957581,205.746399 775.996643,205.421417 
	C775.996643,198.139709 776.116516,191.158371 775.881287,184.189011 
	C775.841003,182.996933 774.530518,181.248459 773.389404,180.785172 
	C761.526367,175.968750 749.347168,178.053757 740.489746,187.101120 
	C736.851135,190.817749 733.717834,195.029083 729.741333,199.742401 
	C729.741333,192.460449 729.741333,185.947098 729.741333,179.278107 
	C719.989990,181.349548 710.787292,183.223007 701.640442,185.337692 
	C700.312378,185.644760 699.251343,187.106567 698.066772,188.034012 
	C699.123901,189.075882 700.014099,190.449341 701.276001,191.084335 
	C703.328613,192.117294 705.685425,192.527481 707.803162,193.453705 
	C711.031128,194.865524 713.099365,196.926208 713.071411,200.997665 
	C712.920654,222.986343 712.925049,244.977127 713.071289,266.965851 
	C713.096619,270.766876 711.496887,272.342987 708.060852,273.037994 
	C704.711853,273.715393 701.429077,274.720062 697.913086,275.634125 
	C698.106140,277.593262 698.260071,279.155762 698.441772,281.000000 
	C713.722168,281.000000 728.531006,281.000000 744.298218,280.999908 
M290.000122,207.714828 
	C291.311218,217.085495 285.572174,222.730988 279.833038,228.998825 
	C273.563904,235.845505 266.679657,239.079971 257.550262,238.048996 
	C254.754791,237.733307 251.718826,237.388718 249.101547,238.136856 
	C244.673584,239.402527 239.842346,240.708832 236.351501,243.475433 
	C230.517365,248.099106 225.624954,253.906235 220.295197,259.173798 
	C218.411545,261.035492 216.733276,262.839172 219.023560,265.498749 
	C221.665588,268.566742 223.908203,266.354706 225.737381,264.663177 
	C230.013229,260.709076 234.338242,256.733459 238.074554,252.288467 
	C243.477249,245.861053 250.152847,245.095093 258.000000,246.455063 
	C258.000000,249.121994 257.739838,251.627548 258.048584,254.060913 
	C258.989868,261.479584 256.372559,267.232269 250.661362,271.927979 
	C247.978424,274.133881 245.384842,276.625092 243.419205,279.451782 
	C242.446777,280.850189 242.988953,283.301849 242.845856,285.276947 
	C244.892181,285.332245 247.806976,286.291748 248.843796,285.295959 
	C255.531403,278.872894 263.523956,273.152740 265.002472,263.039978 
	C265.854370,257.213226 266.018463,251.285919 266.388763,246.687408 
	C271.424164,244.240891 276.460999,242.832138 280.162506,239.795593 
	C290.250610,231.519791 299.540375,222.474258 297.061096,207.415375 
	C296.694672,205.189575 297.013763,203.056732 293.804779,202.971436 
	C291.000397,202.896881 289.777710,204.058182 290.000122,207.714828 
M289.998718,268.154541 
	C289.302460,274.691681 287.118866,279.997314 281.447968,284.368530 
	C273.350189,290.610413 267.104340,298.480560 267.940796,309.857422 
	C268.161896,312.864746 268.161987,315.899689 272.024414,315.895172 
	C275.940613,315.890564 276.289764,312.783569 275.966675,309.807709 
	C275.318878,303.841492 277.675171,299.326447 282.012817,295.412354 
	C285.712921,292.073608 289.882843,288.859039 292.402679,284.712952 
	C295.307312,279.933655 297.342896,275.480530 304.197998,276.648804 
	C305.190918,276.818024 306.699890,273.959320 307.970062,272.501831 
	C306.422119,271.335327 305.026581,269.710236 303.283478,269.130798 
	C301.527435,268.547089 299.426025,269.002289 296.998993,269.002289 
	C296.998993,264.085724 296.851410,259.626251 297.048950,255.182114 
	C297.189453,252.020248 295.312439,250.777451 292.905151,251.228088 
	C291.727753,251.448517 290.277313,253.769989 290.132111,255.255966 
	C289.745544,259.211792 290.000214,263.230255 289.998718,268.154541 
M287.000000,142.280762 
	C286.981995,150.543564 284.519958,153.309921 275.924683,152.869934 
	C269.223267,152.526871 264.342438,155.145569 260.584076,160.119507 
	C259.647797,161.358582 260.259521,163.767288 260.159729,165.638397 
	C262.146881,165.553619 264.985382,166.278778 265.971741,165.241943 
	C269.949005,161.061188 274.423828,159.675674 280.124420,159.881378 
	C288.907562,160.198318 294.913300,153.900116 294.987396,145.085495 
	C295.048981,137.760788 294.949646,130.434647 295.024811,123.110199 
	C295.054535,120.211761 295.046478,117.827980 290.983643,117.931068 
	C286.964020,118.033066 287.057404,120.704460 287.024231,123.349037 
	C286.949066,129.341461 287.000214,135.335464 287.000000,142.280762 
M561.839966,153.538620 
	C562.448059,152.970474 563.085815,152.430710 563.659485,151.829697 
	C567.918152,147.367477 568.226440,139.847961 564.365356,134.960693 
	C561.387573,131.191498 552.811951,129.568146 548.229065,131.906113 
	C542.860535,134.644897 540.039856,141.390381 541.896973,147.048615 
	C544.708130,155.613281 552.266541,158.308350 561.839966,153.538620 
M322.617737,240.093399 
	C324.557861,242.348495 326.652222,242.998154 328.903046,240.559143 
	C331.265961,237.998672 329.844574,235.964981 327.747559,234.277939 
	C320.696838,228.605759 318.336853,221.229813 318.914642,212.374908 
	C319.346954,205.749557 318.944305,199.072647 319.026489,192.420090 
	C319.059448,189.751816 318.659119,187.872589 315.305725,187.960648 
	C312.162109,188.043182 311.971008,189.935120 311.984467,192.306946 
	C312.027863,199.958313 312.492126,207.649765 311.878662,215.251892 
	C311.064972,225.334915 314.154175,233.374725 322.617737,240.093399 
M232.693115,68.864601 
	C236.268646,68.575012 239.912354,68.598244 243.385956,67.841034 
	C244.764984,67.540421 245.766769,65.509155 246.940308,64.265823 
	C245.776352,63.178703 244.745438,61.408112 243.420090,61.150162 
	C240.851746,60.650280 238.117737,60.998753 235.452377,61.000511 
	C227.398422,61.005829 224.518204,62.395603 223.075150,70.571297 
	C221.682007,78.464287 222.214203,86.707047 222.039780,94.799149 
	C221.987396,97.229523 221.921936,100.042915 225.627594,99.981400 
	C229.099915,99.923767 230.053543,97.787476 230.020996,94.686234 
	C229.951065,88.023552 229.859497,81.354675 230.093994,74.699509 
	C230.156525,72.925110 231.366409,71.191139 232.693115,68.864601 
M226.659988,317.000000 
	C232.496933,317.311005 238.438171,316.998169 243.051987,313.212921 
	C248.035797,309.124176 252.459732,304.304230 256.766907,299.480865 
	C257.625610,298.519257 257.502899,295.116791 256.687927,294.580963 
	C255.368958,293.713745 253.101318,294.263336 251.235168,294.287201 
	C251.002319,294.290192 250.771591,294.730530 250.545776,294.973724 
	C242.968674,303.133331 235.674026,311.729736 222.538742,309.227417 
	C221.643448,309.056854 219.456787,311.638031 219.263153,313.121246 
	C219.115707,314.250641 220.996048,315.927948 222.325775,316.859802 
	C223.112091,317.410797 224.582169,316.985992 226.659988,317.000000 
M255.300446,348.017090 
	C259.349304,345.017303 263.689056,342.317780 267.276703,338.841919 
	C268.410370,337.743561 267.532562,334.569061 267.575317,332.344666 
	C265.386475,332.869843 262.425385,332.673615 261.143402,334.045990 
	C255.790665,339.776123 249.812592,343.176514 241.711258,342.049713 
	C239.424805,341.731720 237.043243,341.872803 234.726334,342.061554 
	C232.377670,342.252838 230.304810,343.372803 231.129044,346.078461 
	C231.584213,347.572571 233.345917,349.816071 234.450150,349.777191 
	C241.143814,349.541443 247.817764,348.745209 255.300446,348.017090 
M241.767685,177.098099 
	C240.845123,179.361710 239.271774,181.591599 239.152359,183.896805 
	C238.972794,187.363708 237.872604,189.754410 235.515884,192.413345 
	C231.899200,196.493835 227.737595,197.178223 222.817444,197.141861 
	C221.559021,197.132553 219.356964,198.764343 219.257767,199.801773 
	C219.133408,201.102539 220.465851,203.487793 221.623398,203.819122 
	C232.695801,206.988235 244.740112,199.268616 246.947693,187.870422 
	C248.104889,181.895538 246.681946,178.351746 241.767685,177.098099 
z"/>
<path fill="#000000" opacity="1.000000" stroke="none" 
	d="
M222.937805,373.859802 
	C182.611176,373.906525 142.284531,373.959564 101.957893,373.997131 
	C83.819176,374.014008 65.680428,374.000000 47.011406,374.000000 
	C47.011406,343.487823 47.011406,313.223175 47.541672,282.485413 
	C52.248695,282.012299 56.425453,282.012299 61.003292,282.012299 
	C61.003292,279.854736 61.003292,278.410614 61.471516,276.980286 
	C67.936043,276.996063 73.932350,276.999298 79.928658,276.999725 
	C92.581650,277.000610 93.511215,277.444794 92.820763,290.008331 
	C92.358414,298.421173 94.855499,304.624390 101.255760,309.915588 
	C105.186111,313.164886 109.246056,316.784088 111.760353,321.103119 
	C116.147224,328.638885 122.076111,334.352600 130.053436,336.801392 
	C136.335419,338.729797 143.312958,338.624512 150.003815,338.921906 
	C156.398712,339.206085 160.101288,335.313538 159.961685,328.795898 
	C159.770340,319.862030 159.310959,310.933899 159.394531,302.000305 
	C160.877121,301.115662 162.754684,300.307922 162.841583,299.339508 
	C163.190872,295.446625 162.986115,291.504028 162.986115,287.425659 
	C158.033447,287.425659 153.700714,287.425659 149.328949,287.425659 
	C149.328949,292.415833 149.328949,296.976074 149.328949,301.784363 
	C151.107559,301.867157 152.570572,301.935242 154.019882,302.463684 
	C153.668777,310.859344 153.534988,318.812500 152.842072,326.716614 
	C152.681122,328.552643 150.755188,331.606354 149.403030,331.743103 
	C140.520828,332.641388 131.925385,331.770264 125.216560,324.739838 
	C122.803337,322.210876 120.515846,319.452515 117.721085,317.416321 
	C106.414948,309.179047 94.710640,301.317993 97.987297,284.404938 
	C98.080513,283.923798 98.065887,283.393951 97.977173,282.909637 
	C96.948067,277.290985 94.228287,272.604675 86.996887,272.915070 
	C78.346596,273.286346 69.669044,273.022369 61.001999,272.597351 
	C61.445755,269.027863 60.238724,267.707275 56.948017,267.946564 
	C53.702599,268.182465 50.425022,267.975983 47.161552,267.963623 
	C47.110962,254.304733 47.060368,240.645874 47.397720,226.712463 
	C48.073994,227.706604 48.333775,228.982574 48.655071,230.242874 
	C51.949081,243.163834 63.953850,248.470810 72.327087,256.893188 
	C74.608131,259.187622 78.723328,259.658600 81.998077,261.403320 
	C82.114784,263.719666 81.418053,266.058319 84.666328,266.002106 
	C88.586876,265.934235 92.509483,265.986023 96.572601,265.986023 
	C96.572601,260.687988 96.572601,256.026215 96.572601,251.329285 
	C91.580307,251.329285 87.021767,251.329285 82.215111,251.329285 
	C82.132652,253.105850 82.064697,254.569702 81.618439,256.018860 
	C78.194939,254.205978 74.592529,252.945282 72.226341,250.492157 
	C67.957458,246.066406 64.610916,240.766571 60.536434,236.133163 
	C56.754742,231.832718 54.938858,227.083084 54.965015,221.373260 
	C55.055698,201.578705 55.010990,181.783447 54.979706,161.988510 
	C54.977127,160.356842 54.710716,158.722992 54.525986,157.094803 
	C54.247784,154.642792 53.285851,152.057541 53.770046,149.773926 
	C54.761822,145.096497 56.521481,140.581848 58.432953,136.000107 
	C62.814018,136.000031 66.727104,136.000031 70.616150,136.000031 
	C70.616150,130.578903 70.616150,126.015251 70.616150,121.339813 
	C65.663841,121.339813 61.098984,121.339813 55.996716,121.339813 
	C55.996716,125.121056 55.996716,128.577362 55.661514,132.129990 
	C50.504791,137.870071 48.588795,144.404297 48.898296,151.793579 
	C48.968998,153.481476 47.760666,155.222931 47.140999,156.939743 
	C47.140999,116.142410 47.140999,75.345070 47.140999,34.009777 
	C104.166893,34.009777 161.089966,34.009777 218.294205,34.394035 
	C208.369965,35.809219 198.872391,47.787407 198.890335,57.382946 
	C199.070557,153.825394 198.995132,250.268311 199.034836,346.711090 
	C199.035629,348.637115 199.372482,350.611877 199.866440,352.480927 
	C203.031906,364.458649 211.501068,370.774963 222.937805,373.859802 
M130.951508,66.977013 
	C127.402725,66.977013 123.853943,66.977013 120.379425,66.977013 
	C120.379425,72.456215 120.379425,76.998253 120.379425,81.695114 
	C125.304184,81.695114 129.847275,81.695114 135.072128,81.695114 
	C135.072128,77.654724 135.072128,73.899216 135.695724,69.798744 
	C141.699371,63.353748 149.166077,66.263153 156.196075,66.686668 
	C159.297897,66.873528 160.044647,69.215233 160.004456,71.942772 
	C159.935745,76.604271 159.903778,81.266312 159.025162,85.981613 
	C158.024155,86.756081 156.221268,87.470795 156.158340,88.315170 
	C155.855515,92.378853 156.022141,96.477509 156.022141,100.657822 
	C161.006042,100.657822 165.234421,100.657822 169.728561,100.657822 
	C169.728561,95.744530 169.728561,91.173187 169.728561,86.319679 
	C168.040176,86.177643 166.588486,86.055519 165.024948,85.011734 
	C165.016571,80.363068 165.203873,75.703712 164.950867,71.068398 
	C164.626389,65.124420 161.206390,61.387905 155.827499,61.911312 
	C151.386826,62.343426 146.852707,62.249897 142.392899,61.930218 
	C137.791519,61.600388 134.380478,63.175274 130.951508,66.977013 
M77.840179,309.000610 
	C79.719643,308.885193 82.058304,309.581879 82.002121,306.333679 
	C81.934319,302.413116 81.986069,298.490509 81.986069,294.427399 
	C76.690659,294.427399 72.026131,294.427399 67.329300,294.427399 
	C67.329300,299.418549 67.329300,303.977997 67.329300,308.784851 
	C69.105873,308.867371 70.569725,308.935333 72.009895,309.818420 
	C72.948914,318.965820 77.439346,326.015167 84.325455,331.972839 
	C88.299072,335.410706 91.540573,339.685394 95.194702,343.503937 
	C102.829323,351.481995 110.117096,359.968414 120.756767,364.122650 
	C122.425369,364.774139 125.882797,364.347595 126.587563,363.218079 
	C127.958054,361.021667 126.746864,358.976807 124.048309,357.363281 
	C119.025444,354.360046 113.966705,351.106201 109.789627,347.061523 
	C100.074936,337.654846 91.113632,327.465881 81.322075,318.145447 
	C78.386391,315.350983 77.019989,312.724182 77.840179,309.000610 
M176.006134,288.939575 
	C175.670761,305.679749 175.322693,322.419647 175.009933,339.160248 
	C174.941574,342.819153 175.104431,346.484161 174.974228,350.139709 
	C174.777527,355.661713 171.973511,360.233032 167.977600,360.876099 
	C162.024582,361.834076 155.998352,362.336975 150.000610,362.159882 
	C149.884781,360.281647 150.582901,357.938110 147.336075,357.998657 
	C143.747482,358.065613 140.156677,358.013947 136.427567,358.013947 
	C136.427567,362.978577 136.427567,367.307159 136.427567,371.999054 
	C139.976730,371.999054 143.116486,371.807526 146.221985,372.051849 
	C149.459137,372.306519 150.371414,370.834747 150.931610,367.993835 
	C154.595673,368.018616 158.341568,367.557037 161.908813,368.157227 
	C173.728683,370.145905 182.105865,363.573273 181.973221,351.778229 
	C181.734131,330.518250 181.332275,309.260132 181.910583,288.000183 
	C184.488098,288.000183 187.065613,288.000183 189.612854,288.000183 
	C189.612854,279.901123 189.612854,272.671539 189.612854,265.331482 
	C181.986084,265.331482 174.750259,265.331482 166.996735,265.331482 
	C166.996735,267.783203 166.996735,269.908417 166.060181,272.006134 
	C156.788528,272.006134 147.516891,272.006134 137.994507,272.006134 
	C137.994507,269.695404 138.276260,267.975891 137.903992,266.412079 
	C137.614044,265.193970 136.538376,263.272827 135.761993,263.248383 
	C134.208755,263.199463 132.181015,263.835785 131.175797,264.940979 
	C130.230530,265.980255 130.111359,267.978088 130.048050,269.570831 
	C129.899094,273.318695 130.000320,277.076508 130.000320,280.663116 
	C119.641785,282.734497 112.393997,275.705444 112.921204,265.558258 
	C113.115150,261.825317 112.719604,257.990204 112.055748,254.298309 
	C110.383339,244.997437 103.355606,239.270844 96.868759,233.566101 
	C88.076920,225.834320 85.652641,215.885162 85.883247,205.000977 
	C88.455521,205.000977 91.027802,205.000977 93.667801,205.000977 
	C93.667801,197.305618 93.667801,190.432434 93.667801,183.431274 
	C86.005539,183.431274 78.681389,183.431274 71.351784,183.431274 
	C71.351784,190.745590 71.351784,197.623291 71.351784,205.003265 
	C74.802574,205.003265 77.918068,205.003265 81.006325,205.873810 
	C80.768639,207.976303 80.508575,210.076553 80.298935,212.181839 
	C80.035042,214.831818 79.405457,217.523224 79.644753,220.131516 
	C80.522873,229.702866 87.405373,235.563904 93.923279,241.248581 
	C102.956879,249.127335 106.808395,258.559082 106.127052,270.506592 
	C105.561798,280.418579 113.562668,287.990204 123.417198,287.999695 
	C125.521194,288.001709 127.625191,288.000000 130.001068,288.000000 
	C130.001068,290.115143 130.026627,291.595520 129.995834,293.074738 
	C129.928146,296.327728 131.420746,297.990509 134.754623,298.006195 
	C138.382126,298.023224 137.997467,295.470337 137.998840,293.133545 
	C138.002106,287.537842 137.999878,281.942139 137.999878,275.966370 
	C148.080551,275.966370 157.538635,275.966370 166.999069,276.897400 
	C166.999069,280.451202 166.999069,284.005005 166.999069,288.003326 
	C170.498962,288.003326 173.266312,288.003326 176.006134,288.939575 
M116.999039,135.849960 
	C117.102661,137.434998 117.206276,139.020020 117.314575,140.676697 
	C123.004395,140.676697 128.213730,140.676697 133.572220,140.676697 
	C133.572220,135.019028 133.572220,129.691513 133.572220,124.337189 
	C127.918556,124.337189 122.698410,124.337189 116.996750,124.337189 
	C116.996750,126.453621 116.996750,128.243591 116.186554,130.006607 
	C114.453285,130.700439 112.210411,130.936432 111.091331,132.182068 
	C108.653954,134.895081 109.801170,146.299545 112.408142,148.918686 
	C117.458626,153.992737 122.390129,159.202209 127.696915,163.994583 
	C129.441116,165.569717 132.141357,166.685242 134.493088,166.867645 
	C139.884857,167.285828 145.331223,167.000000 151.107422,167.000000 
	C151.107422,172.642014 151.107422,177.580566 151.107422,182.702499 
	C164.194504,182.702499 176.903503,182.702499 189.994827,182.702499 
	C189.994827,174.449600 190.147095,166.484222 189.834030,158.537170 
	C189.785934,157.316284 187.619659,155.190491 186.390717,155.159485 
	C175.740646,154.890717 165.077911,154.890915 154.428253,155.168457 
	C153.256241,155.199020 151.861557,157.323486 151.096909,158.757660 
	C150.550613,159.782288 150.886261,161.277115 150.808823,162.995987 
	C145.393875,162.995987 140.267166,163.044708 135.143112,162.949829 
	C134.249374,162.933273 133.139328,162.544296 132.514557,161.933258 
	C126.684128,156.231094 120.837265,150.538757 115.211143,144.637665 
	C112.535156,141.830887 113.696251,136.587784 116.999039,135.849960 
M94.000999,153.128052 
	C94.000999,150.887299 94.000999,148.646545 94.000999,146.329254 
	C85.977371,146.329254 78.771248,146.329254 71.429672,146.329254 
	C71.429672,153.989273 71.429672,161.314240 71.429672,168.655273 
	C79.077034,168.655273 86.289925,168.655273 94.003250,168.655273 
	C94.003250,165.866074 94.003250,163.416245 94.714920,161.236618 
	C97.539047,162.359589 101.076866,162.770309 103.047554,164.745010 
	C108.068260,169.775925 112.874146,175.172195 116.892212,181.022400 
	C126.235893,194.626526 139.333481,200.655106 155.300446,200.878433 
	C161.282181,200.962097 167.280930,199.645447 173.276428,199.009705 
	C176.005341,198.720337 178.929871,199.441772 178.778976,202.442139 
	C178.593216,206.135757 181.614487,211.316116 176.050980,213.248718 
	C173.114365,214.268814 169.260635,214.498871 166.381012,213.488861 
	C157.445053,210.354675 151.285568,211.216019 144.869583,217.627975 
	C142.635849,219.860321 140.593613,222.342407 138.106796,224.243240 
	C136.416718,225.535095 134.105179,226.013916 132.022446,226.007812 
	C131.248062,224.680298 130.560883,222.275879 129.684769,222.204941 
	C124.985741,221.824493 120.239662,222.025269 115.445160,222.025269 
	C115.445160,228.034180 115.445160,233.354294 115.445160,238.998962 
	C120.003372,238.998962 124.130455,238.812469 128.231598,239.058411 
	C131.468033,239.252502 132.370911,237.829514 132.746048,234.724365 
	C140.342178,234.895493 144.159912,229.073212 148.915192,224.654327 
	C150.807663,222.895752 152.933731,220.607391 155.234909,220.216232 
	C162.154678,219.040054 169.204163,218.558441 176.220520,218.044434 
	C180.526840,217.728973 183.660583,215.130066 183.961136,210.801361 
	C184.145309,208.148972 184.086960,205.469879 183.979126,202.809204 
	C183.781387,197.929947 180.702042,195.246765 175.832581,194.956299 
	C167.025986,194.430984 158.158676,194.130203 149.467331,192.771896 
	C144.472321,191.991241 139.551743,189.747665 134.990082,187.400085 
	C127.138893,183.359634 122.984581,175.620026 117.991135,168.818665 
	C111.964462,160.610016 105.284119,153.637558 94.000999,153.128052 
M143.998703,115.976776 
	C142.422806,116.102867 140.846924,116.228951 139.419067,116.343193 
	C139.419067,122.166420 139.419067,127.397491 139.419067,132.617889 
	C145.079453,132.617889 150.313278,132.617889 155.672928,132.617889 
	C155.672928,126.990250 155.672928,121.748772 155.672928,116.000298 
	C153.554779,116.000298 151.760178,116.000298 149.993454,115.108887 
	C151.095642,104.424477 146.658737,100.027870 135.907028,100.923531 
	C133.198364,101.149178 130.139114,101.063164 127.712463,100.021744 
	C121.290840,97.265846 108.511505,99.025284 103.627800,103.882103 
	C101.030228,106.465378 98.615166,109.263062 95.822235,111.612747 
	C89.494484,116.936241 85.154709,115.467583 81.560776,109.866837 
	C79.334167,106.396912 81.269989,96.239487 84.319069,93.183807 
	C96.905579,80.570091 109.421242,67.882889 122.190308,55.456326 
	C124.929352,52.790745 128.448166,50.768188 131.896729,49.019157 
	C142.861496,43.458103 154.777481,45.018627 166.404907,45.150177 
	C171.741837,45.210556 174.872437,49.091862 174.959610,54.684319 
	C175.334946,78.764297 175.570236,102.846451 174.998718,126.976768 
	C173.422821,127.102867 171.846939,127.228958 170.419052,127.343216 
	C170.419052,133.166397 170.419052,138.397476 170.419052,143.617889 
	C176.079819,143.617889 181.312164,143.617889 186.672928,143.617889 
	C186.672928,137.990265 186.672928,132.748779 186.672928,127.000298 
	C184.554779,127.000298 182.760178,127.000298 180.993622,126.079124 
	C181.329041,121.309929 181.927689,116.542191 181.953964,111.771294 
	C182.063232,91.939392 182.017654,72.106522 181.991379,52.274052 
	C181.980698,44.214180 175.680634,38.030125 167.522400,38.004688 
	C160.356110,37.982346 153.188248,38.091393 146.023636,37.979382 
	C134.169617,37.794060 124.295670,42.311050 116.009636,50.515472 
	C104.522278,61.889694 93.364258,73.607964 81.611862,84.698502 
	C75.230652,90.720345 72.117004,97.276154 72.879417,106.126472 
	C73.488670,113.198799 76.145065,118.625954 82.775688,121.139000 
	C87.983704,123.112877 96.239166,122.890953 100.706642,117.847321 
	C103.132866,115.108185 105.766281,112.528824 108.501221,110.096642 
	C109.927490,108.828239 111.724686,107.270653 113.442772,107.154785 
	C122.527016,106.542114 131.640762,106.148376 140.740585,106.211258 
	C142.168488,106.221138 144.066223,108.742683 144.846664,110.502106 
	C145.517563,112.014549 144.902786,114.097267 143.998703,115.976776 
M185.221008,232.000183 
	C175.221527,232.000504 165.221481,232.058838 155.222900,231.964539 
	C152.354874,231.937485 150.893143,232.755722 150.959274,235.919632 
	C151.098541,242.583038 151.091766,249.253174 150.960541,255.916901 
	C150.901291,258.925232 152.028656,260.072845 155.059464,260.040588 
	C165.391098,259.930634 175.724960,259.952118 186.057159,260.029938 
	C188.744232,260.050171 190.066177,259.170013 190.027008,256.300842 
	C189.933701,249.469162 189.933472,242.634415 190.029205,235.802780 
	C190.068314,233.012741 188.921494,231.773376 185.221008,232.000183 
z"/>
<path fill="#5872B7" opacity="1.000000" stroke="none" 
	d="
M223.405670,373.917297 
	C211.501068,370.774963 203.031906,364.458649 199.866440,352.480927 
	C199.372482,350.611877 199.035629,348.637115 199.034836,346.711090 
	C198.995132,250.268311 199.070557,153.825394 198.890335,57.382946 
	C198.872391,47.787407 208.369965,35.809219 218.754761,34.458511 
	C226.998611,34.100880 235.063080,34.063034 243.595123,34.082588 
	C249.451385,35.749493 255.142776,36.728222 260.150421,39.131607 
	C266.121124,41.997196 272.066101,45.444839 277.017395,49.786324 
	C285.143219,56.911377 292.832520,64.632622 299.958099,72.758224 
	C303.478485,76.772644 305.684082,82.102837 307.785797,87.129845 
	C308.837189,89.644669 308.464539,93.213478 304.732849,93.845825 
	C301.004547,94.477608 300.345154,91.819992 299.850464,88.591042 
	C299.400848,85.656151 298.426453,82.177490 296.430634,80.208092 
	C285.939911,69.856316 275.515869,59.340000 264.131744,50.025986 
	C257.011841,44.200783 247.813797,41.836441 238.306839,41.987720 
	C233.809143,42.059292 229.281052,42.323399 224.816360,41.932945 
	C215.407684,41.110119 206.116684,48.535419 206.074265,60.334553 
	C205.898697,109.154716 205.966522,157.975922 206.036591,206.796631 
	C206.047379,214.302155 209.937286,218.946991 218.059509,219.778854 
	C226.552017,220.648666 235.082275,220.304672 243.210114,216.468552 
	C250.643021,212.960434 254.147476,206.314789 257.996643,199.857437 
	C261.431732,194.094788 264.667206,188.211426 267.916687,182.340332 
	C272.369476,174.295090 279.934967,171.052612 288.312744,171.243515 
	C296.285217,171.425171 302.450958,169.486588 307.343140,163.197876 
	C312.616241,156.419464 319.015503,151.885895 329.660339,154.678085 
	C328.673462,147.731552 328.272156,141.738724 326.898041,135.977951 
	C324.842834,127.362000 321.793427,119.069839 315.755219,112.233574 
	C312.472198,108.516663 308.377045,106.951111 303.499695,106.985947 
	C296.001984,107.039505 288.503540,107.020538 281.005585,106.992409 
	C276.360382,106.974983 273.350891,104.138924 273.011810,99.522125 
	C272.950958,98.693398 272.825623,97.811241 273.027039,97.030357 
	C275.141693,88.831779 269.455536,84.530624 264.383392,80.075851 
	C263.359802,79.176872 260.830322,78.668465 259.916504,79.304268 
	C258.778168,80.096313 258.087097,82.258675 258.077423,83.834694 
	C257.958618,103.162346 257.948822,122.491188 258.033752,141.819183 
	C258.056793,147.063385 256.613586,151.495621 252.553665,154.993851 
	C250.791229,156.512451 248.949249,158.069275 247.631088,159.950470 
	C241.752594,168.339905 233.048981,167.237534 224.646149,166.835114 
	C223.503159,166.780365 221.808243,164.954239 221.550232,163.704407 
	C221.322433,162.600937 222.455338,160.772522 223.519775,159.972198 
	C224.567001,159.184845 226.396744,158.787170 227.688797,159.078964 
	C238.537720,161.528976 243.258072,153.054123 249.232071,147.000122 
	C250.141739,146.078247 249.967270,143.898132 249.970901,142.299271 
	C250.015564,122.637756 250.011810,102.976089 249.990616,83.314499 
	C249.986053,79.077591 250.273483,74.979431 254.694489,72.797211 
	C258.756226,70.792328 268.001129,72.073639 271.148804,74.586243 
	C279.203461,81.015739 282.455658,89.326019 280.751099,100.000000 
	C289.534973,100.000000 297.659180,100.266876 305.758087,99.928391 
	C314.677429,99.555611 320.493774,104.494392 324.903503,111.074593 
	C333.438721,123.810913 336.497528,138.296906 337.102386,153.445084 
	C337.166656,155.054550 338.277466,157.027969 339.526062,158.119812 
	C349.023804,166.425247 354.769653,176.622955 354.939270,189.355881 
	C355.179016,207.348068 355.317139,225.353439 354.885040,243.338440 
	C354.611053,254.742676 349.519775,264.508453 341.635254,272.628540 
	C340.465149,273.833588 337.224243,274.426880 335.822815,273.670349 
	C333.870819,272.616669 333.256622,270.299927 335.473328,267.912659 
	C344.247742,258.463074 348.246460,247.197571 348.047852,234.267197 
	C347.835480,220.440674 348.176971,206.605362 347.941986,192.779572 
	C347.765228,182.377930 343.976196,173.287186 336.432068,165.972961 
	C330.473267,160.195724 321.160004,160.341431 315.343964,166.159698 
	C312.517059,168.987701 310.118622,172.590652 306.755829,174.447815 
	C302.628143,176.727386 297.634338,178.919647 293.122406,178.720123 
	C283.130798,178.278351 276.367157,181.746735 271.995941,190.719879 
	C269.063232,196.740128 265.668213,202.549774 262.240875,208.311386 
	C255.202774,220.143036 245.269516,227.407623 230.945602,226.957199 
	C222.796402,226.700958 214.355667,228.746262 206.279495,223.610092 
	C206.163895,225.834351 206.010971,227.411011 206.010422,228.987732 
	C205.997040,266.644714 206.111633,304.302216 205.943192,341.958466 
	C205.878876,356.335541 217.384369,367.192535 230.035172,366.103638 
	C236.816498,365.519958 243.695984,365.814148 250.519012,366.055634 
	C256.556061,366.269287 261.490021,363.974365 265.534454,359.888733 
	C280.572113,344.697845 295.579437,329.473267 310.356415,314.030060 
	C315.492950,308.661926 317.878693,301.788208 317.968750,294.324860 
	C318.093384,283.995667 317.841949,273.659149 318.151062,263.337708 
	C318.204651,261.548004 319.905334,258.805298 321.433014,258.307831 
	C323.487915,257.638702 325.081726,259.348938 325.054504,262.162262 
	C324.928802,275.157715 325.789246,288.225189 324.644775,301.120300 
	C324.120789,307.024109 321.008209,313.707764 316.968903,318.110413 
	C301.727722,334.722443 285.819061,350.742889 269.684937,366.498016 
	C266.305206,369.798431 260.905365,371.030212 256.251160,373.538300 
	C245.335129,373.899170 234.604340,373.936981 223.405670,373.917297 
z"/>
<path fill="#1E2B4C" opacity="1.000000" stroke="none" 
	d="
M1020.911987,131.644318 
	C1019.768494,136.292831 1018.696777,140.536560 1017.437317,145.523773 
	C1014.803955,144.187317 1012.748230,142.827362 1010.490906,142.061462 
	C1005.080933,140.225815 999.671143,137.869278 994.085205,137.206024 
	C987.347412,136.406036 983.956177,139.124023 983.146667,145.900604 
	C981.743164,157.649887 981.229492,169.505478 980.304077,181.829987 
	C990.378967,181.829987 999.144897,181.829987 1008.530884,181.829987 
	C1007.845520,185.016052 1007.274780,187.669388 1006.593201,190.837677 
	C998.693298,190.837677 990.768127,190.837677 982.297363,190.837677 
	C982.181091,193.092926 982.013062,194.849060 982.011658,196.605316 
	C981.993958,219.256546 981.996826,241.907776 982.001892,264.559021 
	C982.003479,271.564850 982.244080,271.910370 989.174927,273.553986 
	C992.210999,274.273956 995.298584,274.776978 998.660522,275.436981 
	C998.660522,277.074646 998.660522,278.657104 998.660522,280.624390 
	C982.032043,280.624390 965.464172,280.624390 948.396057,280.624390 
	C948.254028,279.132111 948.105103,277.566956 947.928345,275.709320 
	C950.967102,274.841766 953.772095,273.989136 956.605103,273.242523 
	C963.123352,271.524780 963.978943,270.518433 963.989014,263.639496 
	C964.019226,242.986954 964.000000,222.334305 964.000000,201.681702 
	C964.000000,198.380203 964.000000,195.078705 964.000000,191.079926 
	C957.859497,191.079926 952.144104,191.079926 946.387512,191.079926 
	C947.112061,182.000626 947.112061,182.000595 955.193481,182.000046 
	C957.842163,181.999863 960.490906,182.000000 963.425476,182.000000 
	C963.969910,175.809418 964.058533,169.861465 965.085083,164.080032 
	C967.867920,148.407272 973.383179,134.303055 989.370789,127.329758 
	C999.648132,122.847145 1009.931824,123.616951 1020.468384,127.934006 
	C1020.886902,129.055573 1020.935303,130.147552 1020.911987,131.644318 
z"/>
<path fill="#5872B7" opacity="1.000000" stroke="none" 
	d="
M57.964966,136.000183 
	C56.521481,140.581848 54.761822,145.096497 53.770046,149.773926 
	C53.285851,152.057541 54.247784,154.642792 54.525986,157.094803 
	C54.710716,158.722992 54.977127,160.356842 54.979706,161.988510 
	C55.010990,181.783447 55.055698,201.578705 54.965015,221.373260 
	C54.938858,227.083084 56.754742,231.832718 60.536434,236.133163 
	C64.610916,240.766571 67.957458,246.066406 72.226341,250.492157 
	C74.592529,252.945282 78.194939,254.205978 81.619652,256.429871 
	C81.998360,258.225891 81.997559,259.596191 81.996758,260.966461 
	C78.723328,259.658600 74.608131,259.187622 72.327087,256.893188 
	C63.953850,248.470810 51.949081,243.163834 48.655071,230.242874 
	C48.333775,228.982574 48.073994,227.706604 47.462177,226.251907 
	C47.100918,203.335464 47.063145,180.604996 47.083187,157.407135 
	C47.760666,155.222931 48.968998,153.481476 48.898296,151.793579 
	C48.588795,144.404297 50.504791,137.870071 55.664238,132.477402 
	C56.656429,133.819046 57.310696,134.909622 57.964966,136.000183 
z"/>
<path fill="#1E2B4C" opacity="1.000000" stroke="none" 
	d="
M61.003292,276.966461 
	C61.003292,278.410614 61.003292,279.854736 61.003292,282.012299 
	C56.425453,282.012299 52.248695,282.012299 47.616737,282.024414 
	C47.113163,277.653687 47.064796,273.270782 47.088989,268.425781 
	C50.425022,267.975983 53.702599,268.182465 56.948017,267.946564 
	C60.238724,267.707275 61.445755,269.027863 61.000782,272.990601 
	C61.001671,274.868866 61.002480,275.917664 61.003292,276.966461 
z"/>
<path fill="#1E2B4C" opacity="1.000000" stroke="none" 
	d="
M455.236938,152.215469 
	C457.579559,147.779434 459.537537,143.541397 461.883514,139.530289 
	C462.567566,138.360809 464.328583,137.273590 465.651428,137.203979 
	C466.653564,137.151245 468.281158,138.565811 468.715149,139.682983 
	C476.326996,159.277603 483.765808,178.939331 491.307526,198.561356 
	C499.740845,220.502945 508.515686,242.318237 516.598877,264.387360 
	C520.940247,276.240540 534.432739,276.169250 542.903564,272.204926 
	C544.479309,271.467468 545.849060,268.471985 545.867981,266.504700 
	C546.076721,244.846085 546.005188,223.184723 545.993652,201.524109 
	C545.991638,197.683319 544.704590,194.801376 540.553406,193.696503 
	C538.007507,193.018906 535.517883,192.006210 533.145813,190.850754 
	C531.959778,190.272995 531.093811,189.038071 530.083069,188.100388 
	C531.130676,187.339005 532.079407,186.154175 533.241455,185.882751 
	C543.184631,183.560272 553.166443,181.403259 564.000000,179.005676 
	C564.000000,181.190170 564.000000,182.920883 564.000000,184.651581 
	C564.000000,210.810944 563.998596,236.970306 564.000854,263.129669 
	C564.001465,270.694824 565.047058,272.080261 572.169617,273.893524 
	C574.242859,274.421356 576.334717,274.875946 578.680908,275.425720 
	C578.680908,277.094513 578.680908,278.683990 578.680908,280.637512 
	C546.669312,280.637512 514.765747,280.637512 482.381470,280.637512 
	C482.244995,279.101105 482.105896,277.535339 481.928223,275.535431 
	C487.580353,274.264557 492.997528,273.046478 499.116608,271.670624 
	C496.624969,264.888824 494.301422,258.433533 491.881287,252.014633 
	C489.545319,245.818939 487.067017,239.676865 484.735962,233.479370 
	C483.575958,230.395432 481.974762,228.804184 478.190094,228.886902 
	C464.866821,229.178070 451.532196,228.919724 438.205139,229.104340 
	C436.577301,229.126907 433.971222,230.191895 433.505249,231.415894 
	C428.506531,244.546799 423.847260,257.806915 418.953552,271.425140 
	C424.696136,272.794586 430.082733,274.079102 435.701813,275.419067 
	C435.701813,277.148804 435.701813,278.733978 435.701813,280.660034 
	C422.276367,280.660034 409.035461,280.660034 395.662445,280.660034 
	C394.095734,277.154480 395.012024,274.597290 398.826752,274.235413 
	C407.267120,273.434784 410.122559,267.425232 412.675415,260.679779 
	C425.038452,228.012375 437.481110,195.374954 449.990082,162.763168 
	C451.348206,159.222443 453.315552,155.915421 455.236938,152.215469 
M456.448822,170.101730 
	C450.338989,186.477585 444.229156,202.853439 437.963501,219.646851 
	C451.857910,219.646851 465.179382,219.646851 479.043518,219.646851 
	C472.098785,201.626480 465.343536,184.097824 458.161316,165.461212 
	C457.409027,167.632828 457.096069,168.536224 456.448822,170.101730 
z"/>
<path fill="#1E2B4C" opacity="1.000000" stroke="none" 
	d="
M632.643494,273.350342 
	C635.903442,274.143372 638.773621,274.771667 641.660522,275.403595 
	C641.660522,277.322723 641.660522,278.898773 641.660522,280.723907 
	C623.103638,280.723907 604.871521,280.723907 586.694641,280.723907 
	C584.731445,276.376160 586.832153,274.782166 590.514709,274.053070 
	C603.002930,271.580383 603.000000,271.565704 603.000000,259.045593 
	C603.000000,224.740601 603.002502,190.435593 602.997437,156.130600 
	C602.996582,150.470718 601.296326,148.296799 595.937927,147.127213 
	C594.005066,146.705353 592.054321,146.128555 590.101318,146.084320 
	C585.913879,145.989456 585.596069,143.749329 586.543579,140.000015 
	C588.254883,140.000015 589.880615,140.000015 591.506348,140.000015 
	C609.658020,140.000015 627.817688,139.674301 645.958435,140.118774 
	C657.353455,140.397964 668.327393,143.158707 677.288879,150.849335 
	C689.291504,161.149765 690.755981,174.388382 687.564514,188.930939 
	C683.591614,207.034790 669.258972,219.426361 650.726624,222.291351 
	C640.759583,223.832199 632.180420,221.358643 623.012024,217.243881 
	C623.012024,234.448166 622.795105,251.057007 623.134094,267.654480 
	C623.246948,273.181061 628.528809,272.419891 632.643494,273.350342 
M664.180237,163.450912 
	C662.991516,161.671738 661.982727,159.735077 660.585327,158.138580 
	C650.365356,146.462326 636.883972,147.608093 623.243469,148.315353 
	C623.144104,150.125854 623.010376,151.437103 623.009399,152.748444 
	C622.995605,170.910217 623.151611,189.074173 622.889954,207.232178 
	C622.827087,211.598816 624.867798,212.842758 628.393921,212.946640 
	C633.554810,213.098663 638.849182,213.693420 643.851196,212.792465 
	C648.360352,211.980270 653.160522,210.211349 656.774231,207.469742 
	C668.937744,198.241669 670.988342,177.640060 664.180237,163.450912 
z"/>
<path fill="#1E2B4C" opacity="1.000000" stroke="none" 
	d="
M784.286865,208.492126 
	C789.038452,196.560944 796.512390,187.537109 808.083008,182.497711 
	C825.272888,175.010941 847.239380,176.843231 861.516296,191.202515 
	C869.424622,199.156479 873.672913,209.429520 874.814148,220.535385 
	C876.154968,233.583893 875.479492,246.432983 869.267700,258.605988 
	C862.803223,271.274017 852.872620,279.060913 839.210327,282.411377 
	C826.057922,285.636810 813.572693,283.770203 802.008057,276.939117 
	C789.183167,269.363647 783.638123,256.978851 781.063782,243.000610 
	C778.922852,231.375595 780.410645,219.990860 784.286865,208.492126 
M837.061523,188.114380 
	C822.266235,181.804047 809.929626,189.941879 805.305176,201.572617 
	C797.193604,221.973648 797.998108,242.531525 807.324829,262.251801 
	C812.983032,274.215485 826.331421,279.165405 836.967163,274.423401 
	C845.770508,270.498322 850.555481,263.025726 852.966431,254.010803 
	C855.942932,242.881042 857.102783,231.562393 854.947693,220.133926 
	C852.614624,207.761566 849.405579,195.786942 837.061523,188.114380 
z"/>
<path fill="#1E2B4C" opacity="1.000000" stroke="none" 
	d="
M918.000000,174.908783 
	C918.000000,177.357849 918.000000,179.319550 918.000000,181.991302 
	C927.189697,181.991302 935.898499,181.991302 944.654236,181.991302 
	C943.742676,190.998337 943.741943,190.999268 935.959351,190.999908 
	C930.177063,191.000381 924.394714,191.000000 918.287415,191.000000 
	C918.171021,193.202255 918.012146,194.820999 918.010986,196.439850 
	C917.994751,219.269089 918.067993,242.098724 917.946289,264.927338 
	C917.919922,269.868439 919.371582,272.760681 924.792908,273.203735 
	C928.360657,273.495239 931.854126,274.695770 935.676758,275.555847 
	C935.676758,277.112732 935.676758,278.696350 935.676758,280.640808 
	C918.651062,280.640808 901.743713,280.640808 884.367249,280.640808 
	C884.236877,279.071594 884.106506,277.502472 883.956116,275.692017 
	C887.872742,274.748474 891.732056,274.328918 895.100464,272.816254 
	C897.126404,271.906494 899.764526,269.307892 899.783997,267.443787 
	C900.044861,242.455948 899.893616,217.463791 899.824097,192.472763 
	C899.823303,192.185913 899.550537,191.899811 899.120117,191.054504 
	C894.163330,191.054504 888.908936,191.054504 882.756531,191.054504 
	C883.354187,187.730026 883.825439,185.108688 884.390015,181.968018 
	C889.549194,181.968018 894.472900,181.968018 899.181519,181.968018 
	C900.528137,173.107788 901.124146,164.651154 903.191895,156.571182 
	C906.948547,141.891846 914.453857,130.122330 930.350220,125.728065 
	C939.789551,123.118744 948.560913,124.219948 957.574707,128.793793 
	C956.672729,133.499115 955.963867,138.181381 954.834473,142.759933 
	C954.013855,146.086807 951.715332,144.804977 949.699097,143.860992 
	C945.366821,141.832703 941.191284,139.269608 936.655945,137.914764 
	C925.822815,134.678574 919.087036,138.948929 918.943237,149.568985 
	C918.830994,157.855865 918.328857,166.137482 918.000000,174.908783 
z"/>
<path fill="#1E2B4C" opacity="1.000000" stroke="none" 
	d="
M743.819031,280.999939 
	C728.531006,281.000000 713.722168,281.000000 698.441772,281.000000 
	C698.260071,279.155762 698.106140,277.593262 697.913086,275.634125 
	C701.429077,274.720062 704.711853,273.715393 708.060852,273.037994 
	C711.496887,272.342987 713.096619,270.766876 713.071289,266.965851 
	C712.925049,244.977127 712.920654,222.986343 713.071411,200.997665 
	C713.099365,196.926208 711.031128,194.865524 707.803162,193.453705 
	C705.685425,192.527481 703.328613,192.117294 701.276001,191.084335 
	C700.014099,190.449341 699.123901,189.075882 698.066772,188.034012 
	C699.251343,187.106567 700.312378,185.644760 701.640442,185.337692 
	C710.787292,183.223007 719.989990,181.349548 729.741333,179.278107 
	C729.741333,185.947098 729.741333,192.460449 729.741333,199.742401 
	C733.717834,195.029083 736.851135,190.817749 740.489746,187.101120 
	C749.347168,178.053757 761.526367,175.968750 773.389404,180.785172 
	C774.530518,181.248459 775.841003,182.996933 775.881287,184.189011 
	C776.116516,191.158371 775.996643,198.139709 775.996643,205.421417 
	C772.957581,205.746399 770.344055,207.539200 768.505615,203.259811 
	C764.690857,194.380371 759.125305,191.917496 749.598206,194.282944 
	C742.690613,195.998016 737.419312,200.239273 733.056458,205.632965 
	C732.236145,206.647110 732.047302,208.398865 732.042664,209.811813 
	C731.979553,228.969315 732.070374,248.127594 731.934204,267.284332 
	C731.910522,270.617950 733.322876,272.244293 736.275452,272.898041 
	C740.291321,273.787201 744.329895,274.573883 748.661011,275.466858 
	C748.661011,277.075928 748.661011,278.658447 748.661011,280.672638 
	C747.183594,280.783447 745.740906,280.891693 743.819031,280.999939 
z"/>
<path fill="#5872B7" opacity="1.000000" stroke="none" 
	d="
M290.000763,207.265686 
	C289.777710,204.058182 291.000397,202.896881 293.804779,202.971436 
	C297.013763,203.056732 296.694672,205.189575 297.061096,207.415375 
	C299.540375,222.474258 290.250610,231.519791 280.162506,239.795593 
	C276.460999,242.832138 271.424164,244.240891 266.388763,246.687408 
	C266.018463,251.285919 265.854370,257.213226 265.002472,263.039978 
	C263.523956,273.152740 255.531403,278.872894 248.843796,285.295959 
	C247.806976,286.291748 244.892181,285.332245 242.845856,285.276947 
	C242.988953,283.301849 242.446777,280.850189 243.419205,279.451782 
	C245.384842,276.625092 247.978424,274.133881 250.661362,271.927979 
	C256.372559,267.232269 258.989868,261.479584 258.048584,254.060913 
	C257.739838,251.627548 258.000000,249.121994 258.000000,246.455063 
	C250.152847,245.095093 243.477249,245.861053 238.074554,252.288467 
	C234.338242,256.733459 230.013229,260.709076 225.737381,264.663177 
	C223.908203,266.354706 221.665588,268.566742 219.023560,265.498749 
	C216.733276,262.839172 218.411545,261.035492 220.295197,259.173798 
	C225.624954,253.906235 230.517365,248.099106 236.351501,243.475433 
	C239.842346,240.708832 244.673584,239.402527 249.101547,238.136856 
	C251.718826,237.388718 254.754791,237.733307 257.550262,238.048996 
	C266.679657,239.079971 273.563904,235.845505 279.833038,228.998825 
	C285.572174,222.730988 291.311218,217.085495 290.000763,207.265686 
z"/>
<path fill="#5872B7" opacity="1.000000" stroke="none" 
	d="
M289.999329,267.689178 
	C290.000214,263.230255 289.745544,259.211792 290.132111,255.255966 
	C290.277313,253.769989 291.727753,251.448517 292.905151,251.228088 
	C295.312439,250.777451 297.189453,252.020248 297.048950,255.182114 
	C296.851410,259.626251 296.998993,264.085724 296.998993,269.002289 
	C299.426025,269.002289 301.527435,268.547089 303.283478,269.130798 
	C305.026581,269.710236 306.422119,271.335327 307.970062,272.501831 
	C306.699890,273.959320 305.190918,276.818024 304.197998,276.648804 
	C297.342896,275.480530 295.307312,279.933655 292.402679,284.712952 
	C289.882843,288.859039 285.712921,292.073608 282.012817,295.412354 
	C277.675171,299.326447 275.318878,303.841492 275.966675,309.807709 
	C276.289764,312.783569 275.940613,315.890564 272.024414,315.895172 
	C268.161987,315.899689 268.161896,312.864746 267.940796,309.857422 
	C267.104340,298.480560 273.350189,290.610413 281.447968,284.368530 
	C287.118866,279.997314 289.302460,274.691681 289.999329,267.689178 
z"/>
<path fill="#5872B7" opacity="1.000000" stroke="none" 
	d="
M287.000000,141.804794 
	C287.000214,135.335464 286.949066,129.341461 287.024231,123.349037 
	C287.057404,120.704460 286.964020,118.033066 290.983643,117.931068 
	C295.046478,117.827980 295.054535,120.211761 295.024811,123.110199 
	C294.949646,130.434647 295.048981,137.760788 294.987396,145.085495 
	C294.913300,153.900116 288.907562,160.198318 280.124420,159.881378 
	C274.423828,159.675674 269.949005,161.061188 265.971741,165.241943 
	C264.985382,166.278778 262.146881,165.553619 260.159729,165.638397 
	C260.259521,163.767288 259.647797,161.358582 260.584076,160.119507 
	C264.342438,155.145569 269.223267,152.526871 275.924683,152.869934 
	C284.519958,153.309921 286.981995,150.543564 287.000000,141.804794 
z"/>
<path fill="#1E2B4C" opacity="1.000000" stroke="none" 
	d="
M561.507935,153.730713 
	C552.266541,158.308350 544.708130,155.613281 541.896973,147.048615 
	C540.039856,141.390381 542.860535,134.644897 548.229065,131.906113 
	C552.811951,129.568146 561.387573,131.191498 564.365356,134.960693 
	C568.226440,139.847961 567.918152,147.367477 563.659485,151.829697 
	C563.085815,152.430710 562.448059,152.970474 561.507935,153.730713 
z"/>
<path fill="#5872B7" opacity="1.000000" stroke="none" 
	d="
M322.347382,239.844910 
	C314.154175,233.374725 311.064972,225.334915 311.878662,215.251892 
	C312.492126,207.649765 312.027863,199.958313 311.984467,192.306946 
	C311.971008,189.935120 312.162109,188.043182 315.305725,187.960648 
	C318.659119,187.872589 319.059448,189.751816 319.026489,192.420090 
	C318.944305,199.072647 319.346954,205.749557 318.914642,212.374908 
	C318.336853,221.229813 320.696838,228.605759 327.747559,234.277939 
	C329.844574,235.964981 331.265961,237.998672 328.903046,240.559143 
	C326.652222,242.998154 324.557861,242.348495 322.347382,239.844910 
z"/>
<path fill="#5872B7" opacity="1.000000" stroke="none" 
	d="
M232.371307,69.151596 
	C231.366409,71.191139 230.156525,72.925110 230.093994,74.699509 
	C229.859497,81.354675 229.951065,88.023552 230.020996,94.686234 
	C230.053543,97.787476 229.099915,99.923767 225.627594,99.981400 
	C221.921936,100.042915 221.987396,97.229523 222.039780,94.799149 
	C222.214203,86.707047 221.682007,78.464287 223.075150,70.571297 
	C224.518204,62.395603 227.398422,61.005829 235.452377,61.000511 
	C238.117737,60.998753 240.851746,60.650280 243.420090,61.150162 
	C244.745438,61.408112 245.776352,63.178703 246.940308,64.265823 
	C245.766769,65.509155 244.764984,67.540421 243.385956,67.841034 
	C239.912354,68.598244 236.268646,68.575012 232.371307,69.151596 
z"/>
<path fill="#5872B7" opacity="1.000000" stroke="none" 
	d="
M226.202377,317.000000 
	C224.582169,316.985992 223.112091,317.410797 222.325775,316.859802 
	C220.996048,315.927948 219.115707,314.250641 219.263153,313.121246 
	C219.456787,311.638031 221.643448,309.056854 222.538742,309.227417 
	C235.674026,311.729736 242.968674,303.133331 250.545776,294.973724 
	C250.771591,294.730530 251.002319,294.290192 251.235168,294.287201 
	C253.101318,294.263336 255.368958,293.713745 256.687927,294.580963 
	C257.502899,295.116791 257.625610,298.519257 256.766907,299.480865 
	C252.459732,304.304230 248.035797,309.124176 243.051987,313.212921 
	C238.438171,316.998169 232.496933,317.311005 226.202377,317.000000 
z"/>
<path fill="#5872B7" opacity="1.000000" stroke="none" 
	d="
M254.899368,348.076660 
	C247.817764,348.745209 241.143814,349.541443 234.450150,349.777191 
	C233.345917,349.816071 231.584213,347.572571 231.129044,346.078461 
	C230.304810,343.372803 232.377670,342.252838 234.726334,342.061554 
	C237.043243,341.872803 239.424805,341.731720 241.711258,342.049713 
	C249.812592,343.176514 255.790665,339.776123 261.143402,334.045990 
	C262.425385,332.673615 265.386475,332.869843 267.575317,332.344666 
	C267.532562,334.569061 268.410370,337.743561 267.276703,338.841919 
	C263.689056,342.317780 259.349304,345.017303 254.899368,348.076660 
z"/>
<path fill="#5872B7" opacity="1.000000" stroke="none" 
	d="
M242.179031,177.058441 
	C246.681946,178.351746 248.104889,181.895538 246.947693,187.870422 
	C244.740112,199.268616 232.695801,206.988235 221.623398,203.819122 
	C220.465851,203.487793 219.133408,201.102539 219.257767,199.801773 
	C219.356964,198.764343 221.559021,197.132553 222.817444,197.141861 
	C227.737595,197.178223 231.899200,196.493835 235.515884,192.413345 
	C237.872604,189.754410 238.972794,187.363708 239.152359,183.896805 
	C239.271774,181.591599 240.845123,179.361710 242.179031,177.058441 
z"/>
<path fill="#5872B7" opacity="1.000000" stroke="none" 
	d="
M175.856522,126.927818 
	C175.570236,102.846451 175.334946,78.764297 174.959610,54.684319 
	C174.872437,49.091862 171.741837,45.210556 166.404907,45.150177 
	C154.777481,45.018627 142.861496,43.458103 131.896729,49.019157 
	C128.448166,50.768188 124.929352,52.790745 122.190308,55.456326 
	C109.421242,67.882889 96.905579,80.570091 84.319069,93.183807 
	C81.269989,96.239487 79.334167,106.396912 81.560776,109.866837 
	C85.154709,115.467583 89.494484,116.936241 95.822235,111.612747 
	C98.615166,109.263062 101.030228,106.465378 103.627800,103.882103 
	C108.511505,99.025284 121.290840,97.265846 127.712463,100.021744 
	C130.139114,101.063164 133.198364,101.149178 135.907028,100.923531 
	C146.658737,100.027870 151.095642,104.424477 149.646362,115.688789 
	C147.818359,116.155067 146.337433,116.041443 144.856522,115.927818 
	C144.902786,114.097267 145.517563,112.014549 144.846664,110.502106 
	C144.066223,108.742683 142.168488,106.221138 140.740585,106.211258 
	C131.640762,106.148376 122.527016,106.542114 113.442772,107.154785 
	C111.724686,107.270653 109.927490,108.828239 108.501221,110.096642 
	C105.766281,112.528824 103.132866,115.108185 100.706642,117.847321 
	C96.239166,122.890953 87.983704,123.112877 82.775688,121.139000 
	C76.145065,118.625954 73.488670,113.198799 72.879417,106.126472 
	C72.117004,97.276154 75.230652,90.720345 81.611862,84.698502 
	C93.364258,73.607964 104.522278,61.889694 116.009636,50.515472 
	C124.295670,42.311050 134.169617,37.794060 146.023636,37.979382 
	C153.188248,38.091393 160.356110,37.982346 167.522400,38.004688 
	C175.680634,38.030125 181.980698,44.214180 181.991379,52.274052 
	C182.017654,72.106522 182.063232,91.939392 181.953964,111.771294 
	C181.927689,116.542191 181.329041,121.309929 180.646454,126.673904 
	C178.818359,127.155067 177.337433,127.041443 175.856522,126.927818 
z"/>
<path fill="#5872B7" opacity="1.000000" stroke="none" 
	d="
M132.071564,226.856323 
	C134.105179,226.013916 136.416718,225.535095 138.106796,224.243240 
	C140.593613,222.342407 142.635849,219.860321 144.869583,217.627975 
	C151.285568,211.216019 157.445053,210.354675 166.381012,213.488861 
	C169.260635,214.498871 173.114365,214.268814 176.050980,213.248718 
	C181.614487,211.316116 178.593216,206.135757 178.778976,202.442139 
	C178.929871,199.441772 176.005341,198.720337 173.276428,199.009705 
	C167.280930,199.645447 161.282181,200.962097 155.300446,200.878433 
	C139.333481,200.655106 126.235893,194.626526 116.892212,181.022400 
	C112.874146,175.172195 108.068260,169.775925 103.047554,164.745010 
	C101.076866,162.770309 97.539047,162.359589 94.357880,160.668304 
	C94.001633,158.077835 94.002441,156.055710 94.003250,154.033569 
	C105.284119,153.637558 111.964462,160.610016 117.991135,168.818665 
	C122.984581,175.620026 127.138893,183.359634 134.990082,187.400085 
	C139.551743,189.747665 144.472321,191.991241 149.467331,192.771896 
	C158.158676,194.130203 167.025986,194.430984 175.832581,194.956299 
	C180.702042,195.246765 183.781387,197.929947 183.979126,202.809204 
	C184.086960,205.469879 184.145309,208.148972 183.961136,210.801361 
	C183.660583,215.130066 180.526840,217.728973 176.220520,218.044434 
	C169.204163,218.558441 162.154678,219.040054 155.234909,220.216232 
	C152.933731,220.607391 150.807663,222.895752 148.915192,224.654327 
	C144.159912,229.073212 140.342178,234.895493 132.220200,234.484451 
	C131.820084,231.781799 131.945816,229.319061 132.071564,226.856323 
z"/>
<path fill="#5872B7" opacity="1.000000" stroke="none" 
	d="
M166.996735,275.966370 
	C157.538635,275.966370 148.080551,275.966370 137.999878,275.966370 
	C137.999878,281.942139 138.002106,287.537842 137.998840,293.133545 
	C137.997467,295.470337 138.382126,298.023224 134.754623,298.006195 
	C131.420746,297.990509 129.928146,296.327728 129.995834,293.074738 
	C130.026627,291.595520 130.001068,290.115143 130.001068,288.000000 
	C127.625191,288.000000 125.521194,288.001709 123.417198,287.999695 
	C113.562668,287.990204 105.561798,280.418579 106.127052,270.506592 
	C106.808395,258.559082 102.956879,249.127335 93.923279,241.248581 
	C87.405373,235.563904 80.522873,229.702866 79.644753,220.131516 
	C79.405457,217.523224 80.035042,214.831818 80.298935,212.181839 
	C80.508575,210.076553 80.768639,207.976303 81.413208,205.437317 
	C82.868866,205.001617 83.917648,205.002441 84.966431,205.003265 
	C85.652641,215.885162 88.076920,225.834320 96.868759,233.566101 
	C103.355606,239.270844 110.383339,244.997437 112.055748,254.298309 
	C112.719604,257.990204 113.115150,261.825317 112.921204,265.558258 
	C112.393997,275.705444 119.641785,282.734497 130.000320,280.663116 
	C130.000320,277.076508 129.899094,273.318695 130.048050,269.570831 
	C130.111359,267.978088 130.230530,265.980255 131.175797,264.940979 
	C132.181015,263.835785 134.208755,263.199463 135.761993,263.248383 
	C136.538376,263.272827 137.614044,265.193970 137.903992,266.412079 
	C138.276260,267.975891 137.994507,269.695404 137.994507,272.006134 
	C147.516891,272.006134 156.788528,272.006134 166.529663,272.413147 
	C166.998337,273.868866 166.997543,274.917633 166.996735,275.966370 
z"/>
<path fill="#5872B7" opacity="1.000000" stroke="none" 
	d="
M61.471516,276.980286 
	C61.002480,275.917664 61.001671,274.868866 61.002079,273.426819 
	C69.669044,273.022369 78.346596,273.286346 86.996887,272.915070 
	C94.228287,272.604675 96.948067,277.290985 97.977173,282.909637 
	C98.065887,283.393951 98.080513,283.923798 97.987297,284.404938 
	C94.710640,301.317993 106.414948,309.179047 117.721085,317.416321 
	C120.515846,319.452515 122.803337,322.210876 125.216560,324.739838 
	C131.925385,331.770264 140.520828,332.641388 149.403030,331.743103 
	C150.755188,331.606354 152.681122,328.552643 152.842072,326.716614 
	C153.534988,318.812500 153.668777,310.859344 154.430908,302.462463 
	C156.225891,302.001678 157.596161,302.002502 158.966431,302.003326 
	C159.310959,310.933899 159.770340,319.862030 159.961685,328.795898 
	C160.101288,335.313538 156.398712,339.206085 150.003815,338.921906 
	C143.312958,338.624512 136.335419,338.729797 130.053436,336.801392 
	C122.076111,334.352600 116.147224,328.638885 111.760353,321.103119 
	C109.246056,316.784088 105.186111,313.164886 101.255760,309.915588 
	C94.855499,304.624390 92.358414,298.421173 92.820763,290.008331 
	C93.511215,277.444794 92.581650,277.000610 79.928658,276.999725 
	C73.932350,276.999298 67.936043,276.996063 61.471516,276.980286 
z"/>
<path fill="#5872B7" opacity="1.000000" stroke="none" 
	d="
M116.996750,134.966431 
	C113.696251,136.587784 112.535156,141.830887 115.211143,144.637665 
	C120.837265,150.538757 126.684128,156.231094 132.514557,161.933258 
	C133.139328,162.544296 134.249374,162.933273 135.143112,162.949829 
	C140.267166,163.044708 145.393875,162.995987 150.808823,162.995987 
	C150.886261,161.277115 150.550613,159.782288 151.096909,158.757660 
	C151.861557,157.323486 153.256241,155.199020 154.428253,155.168457 
	C165.077911,154.890915 175.740646,154.890717 186.390717,155.159485 
	C187.619659,155.190491 189.785934,157.316284 189.834030,158.537170 
	C190.147095,166.484222 189.994827,174.449600 189.994827,182.702499 
	C176.903503,182.702499 164.194504,182.702499 151.107422,182.702499 
	C151.107422,177.580566 151.107422,172.642014 151.107422,167.000000 
	C145.331223,167.000000 139.884857,167.285828 134.493088,166.867645 
	C132.141357,166.685242 129.441116,165.569717 127.696915,163.994583 
	C122.390129,159.202209 117.458626,153.992737 112.408142,148.918686 
	C109.801170,146.299545 108.653954,134.895081 111.091331,132.182068 
	C112.210411,130.936432 114.453285,130.700439 116.592850,130.431122 
	C116.998352,132.225891 116.997551,133.596161 116.996750,134.966431 
M156.000412,163.687698 
	C156.000412,168.632187 156.000412,173.576691 156.000412,178.711243 
	C165.859467,178.711243 175.227417,178.711243 184.659210,178.711243 
	C184.659210,172.376770 184.659210,166.335098 184.659210,160.002884 
	C175.863159,160.002884 167.402740,159.912201 158.949860,160.123093 
	C157.946671,160.148117 156.984589,161.821548 156.000412,163.687698 
z"/>
<path fill="#5872B7" opacity="1.000000" stroke="none" 
	d="
M150.003265,363.033539 
	C155.998352,362.336975 162.024582,361.834076 167.977600,360.876099 
	C171.973511,360.233032 174.777527,355.661713 174.974228,350.139709 
	C175.104431,346.484161 174.941574,342.819153 175.009933,339.160248 
	C175.322693,322.419647 175.670761,305.679749 176.433472,288.470215 
	C178.239990,288.000977 179.619202,288.001099 180.998398,288.001221 
	C181.332275,309.260132 181.734131,330.518250 181.973221,351.778229 
	C182.105865,363.573273 173.728683,370.145905 161.908813,368.157227 
	C158.341568,367.557037 154.595673,368.018616 150.466217,367.569092 
	C150.001633,365.774109 150.002457,364.403809 150.003265,363.033539 
z"/>
<path fill="#5872B7" opacity="1.000000" stroke="none" 
	d="
M76.966431,309.003357 
	C77.019989,312.724182 78.386391,315.350983 81.322075,318.145447 
	C91.113632,327.465881 100.074936,337.654846 109.789627,347.061523 
	C113.966705,351.106201 119.025444,354.360046 124.048309,357.363281 
	C126.746864,358.976807 127.958054,361.021667 126.587563,363.218079 
	C125.882797,364.347595 122.425369,364.774139 120.756767,364.122650 
	C110.117096,359.968414 102.829323,351.481995 95.194702,343.503937 
	C91.540573,339.685394 88.299072,335.410706 84.325455,331.972839 
	C77.439346,326.015167 72.948914,318.965820 72.432762,309.409637 
	C74.225899,309.001678 75.596161,309.002502 76.966431,309.003357 
z"/>
<path fill="#5872B7" opacity="1.000000" stroke="none" 
	d="
M185.691238,232.000885 
	C188.921494,231.773376 190.068314,233.012741 190.029205,235.802780 
	C189.933472,242.634415 189.933701,249.469162 190.027008,256.300842 
	C190.066177,259.170013 188.744232,260.050171 186.057159,260.029938 
	C175.724960,259.952118 165.391098,259.930634 155.059464,260.040588 
	C152.028656,260.072845 150.901291,258.925232 150.960541,255.916901 
	C151.091766,249.253174 151.098541,242.583038 150.959274,235.919632 
	C150.893143,232.755722 152.354874,231.937485 155.222900,231.964539 
	C165.221481,232.058838 175.221527,232.000504 185.691238,232.000885 
M162.588348,237.000000 
	C160.496017,237.000000 158.403702,237.000000 156.381348,237.000000 
	C156.381348,243.377975 156.381348,249.086960 156.381348,254.754913 
	C166.013336,254.754913 175.261917,254.754913 184.704224,254.754913 
	C184.704224,248.801453 184.704224,243.095947 184.704224,237.000000 
	C177.465668,237.000000 170.518188,237.000000 162.588348,237.000000 
z"/>
<path fill="#1E2B4C" opacity="1.000000" stroke="none" 
	d="
M94.002121,153.580811 
	C94.002441,156.055710 94.001633,158.077835 94.002045,160.533203 
	C94.003250,163.416245 94.003250,165.866074 94.003250,168.655273 
	C86.289925,168.655273 79.077034,168.655273 71.429672,168.655273 
	C71.429672,161.314240 71.429672,153.989273 71.429672,146.329254 
	C78.771248,146.329254 85.977371,146.329254 94.000999,146.329254 
	C94.000999,148.646545 94.000999,150.887299 94.002121,153.580811 
z"/>
<path fill="#1E2B4C" opacity="1.000000" stroke="none" 
	d="
M181.454498,288.000702 
	C179.619202,288.001099 178.239990,288.000977 176.447220,288.002075 
	C173.266312,288.003326 170.498962,288.003326 166.999069,288.003326 
	C166.999069,284.005005 166.999069,280.451202 166.997894,276.431885 
	C166.997543,274.917633 166.998337,273.868866 166.997925,272.426880 
	C166.996735,269.908417 166.996735,267.783203 166.996735,265.331482 
	C174.750259,265.331482 181.986084,265.331482 189.612854,265.331482 
	C189.612854,272.671539 189.612854,279.901123 189.612854,288.000183 
	C187.065613,288.000183 184.488098,288.000183 181.454498,288.000702 
z"/>
<path fill="#1E2B4C" opacity="1.000000" stroke="none" 
	d="
M85.424835,205.002121 
	C83.917648,205.002441 82.868866,205.001617 81.426826,205.002045 
	C77.918068,205.003265 74.802574,205.003265 71.351784,205.003265 
	C71.351784,197.623291 71.351784,190.745590 71.351784,183.431274 
	C78.681389,183.431274 86.005539,183.431274 93.667801,183.431274 
	C93.667801,190.432434 93.667801,197.305618 93.667801,205.000977 
	C91.027802,205.000977 88.455521,205.000977 85.424835,205.002121 
z"/>
<path fill="#1E2B4C" opacity="1.000000" stroke="none" 
	d="
M116.997894,135.408203 
	C116.997551,133.596161 116.998352,132.225891 116.997955,130.444595 
	C116.996750,128.243591 116.996750,126.453621 116.996750,124.337189 
	C122.698410,124.337189 127.918556,124.337189 133.572220,124.337189 
	C133.572220,129.691513 133.572220,135.019028 133.572220,140.676697 
	C128.213730,140.676697 123.004395,140.676697 117.314575,140.676697 
	C117.206276,139.020020 117.102661,137.434998 116.997894,135.408203 
z"/>
<path fill="#1E2B4C" opacity="1.000000" stroke="none" 
	d="
M175.427612,126.952293 
	C177.337433,127.041443 178.818359,127.155067 180.632416,127.134491 
	C182.760178,127.000298 184.554779,127.000298 186.672928,127.000298 
	C186.672928,132.748779 186.672928,137.990265 186.672928,143.617889 
	C181.312164,143.617889 176.079819,143.617889 170.419052,143.617889 
	C170.419052,138.397476 170.419052,133.166397 170.419052,127.343216 
	C171.846939,127.228958 173.422821,127.102867 175.427612,126.952293 
z"/>
<path fill="#1E2B4C" opacity="1.000000" stroke="none" 
	d="
M144.427612,115.952301 
	C146.337433,116.041443 147.818359,116.155067 149.632416,116.134491 
	C151.760178,116.000298 153.554779,116.000298 155.672928,116.000298 
	C155.672928,121.748772 155.672928,126.990250 155.672928,132.617889 
	C150.313278,132.617889 145.079453,132.617889 139.419067,132.617889 
	C139.419067,127.397491 139.419067,122.166420 139.419067,116.343193 
	C140.846924,116.228951 142.422806,116.102867 144.427612,115.952301 
z"/>
<path fill="#1E2B4C" opacity="1.000000" stroke="none" 
	d="
M132.046997,226.432068 
	C131.945816,229.319061 131.820084,231.781799 131.847015,234.605927 
	C132.370911,237.829514 131.468033,239.252502 128.231598,239.058411 
	C124.130455,238.812469 120.003372,238.998962 115.445160,238.998962 
	C115.445160,233.354294 115.445160,228.034180 115.445160,222.025269 
	C120.239662,222.025269 124.985741,221.824493 129.684769,222.204941 
	C130.560883,222.275879 131.248062,224.680298 132.046997,226.432068 
z"/>
<path fill="#5872B7" opacity="1.000000" stroke="none" 
	d="
M159.856369,85.928116 
	C159.903778,81.266312 159.935745,76.604271 160.004456,71.942772 
	C160.044647,69.215233 159.297897,66.873528 156.196075,66.686668 
	C149.166077,66.263153 141.699371,63.353748 135.093292,69.801422 
	C133.612823,68.844910 132.734787,67.885719 131.856735,66.926529 
	C134.380478,63.175274 137.791519,61.600388 142.392899,61.930218 
	C146.852707,62.249897 151.386826,62.343426 155.827499,61.911312 
	C161.206390,61.387905 164.626389,65.124420 164.950867,71.068398 
	C165.203873,75.703712 165.016571,80.363068 164.855743,85.776886 
	C163.076492,86.337395 161.466431,86.132759 159.856369,85.928116 
z"/>
<path fill="#1E2B4C" opacity="1.000000" stroke="none" 
	d="
M81.998077,261.403320 
	C81.997559,259.596191 81.998360,258.225891 81.997955,256.444580 
	C82.064697,254.569702 82.132652,253.105850 82.215111,251.329285 
	C87.021767,251.329285 91.580307,251.329285 96.572601,251.329285 
	C96.572601,256.026215 96.572601,260.687988 96.572601,265.986023 
	C92.509483,265.986023 88.586876,265.934235 84.666328,266.002106 
	C81.418053,266.058319 82.114784,263.719666 81.998077,261.403320 
z"/>
<path fill="#1E2B4C" opacity="1.000000" stroke="none" 
	d="
M77.403305,309.001984 
	C75.596161,309.002502 74.225899,309.001678 72.444595,309.002075 
	C70.569725,308.935333 69.105873,308.867371 67.329300,308.784851 
	C67.329300,303.977997 67.329300,299.418549 67.329300,294.427399 
	C72.026131,294.427399 76.690659,294.427399 81.986069,294.427399 
	C81.986069,298.490509 81.934319,302.413116 82.002121,306.333679 
	C82.058304,309.581879 79.719643,308.885193 77.403305,309.001984 
z"/>
<path fill="#1E2B4C" opacity="1.000000" stroke="none" 
	d="
M58.432953,136.000107 
	C57.310696,134.909622 56.656429,133.819046 55.999439,132.381073 
	C55.996716,128.577362 55.996716,125.121056 55.996716,121.339813 
	C61.098984,121.339813 65.663841,121.339813 70.616150,121.339813 
	C70.616150,126.015251 70.616150,130.578903 70.616150,136.000031 
	C66.727104,136.000031 62.814018,136.000031 58.432953,136.000107 
z"/>
<path fill="#1E2B4C" opacity="1.000000" stroke="none" 
	d="
M131.404114,66.951767 
	C132.734787,67.885719 133.612823,68.844910 134.781494,69.973907 
	C135.072128,73.899216 135.072128,77.654724 135.072128,81.695114 
	C129.847275,81.695114 125.304184,81.695114 120.379425,81.695114 
	C120.379425,76.998253 120.379425,72.456215 120.379425,66.977013 
	C123.853943,66.977013 127.402725,66.977013 131.404114,66.951767 
z"/>
<path fill="#1E2B4C" opacity="1.000000" stroke="none" 
	d="
M159.394531,302.000305 
	C157.596161,302.002502 156.225891,302.001678 154.444595,302.002075 
	C152.570572,301.935242 151.107559,301.867157 149.328949,301.784363 
	C149.328949,296.976074 149.328949,292.415833 149.328949,287.425659 
	C153.700714,287.425659 158.033447,287.425659 162.986115,287.425659 
	C162.986115,291.504028 163.190872,295.446625 162.841583,299.339508 
	C162.754684,300.307922 160.877121,301.115662 159.394531,302.000305 
z"/>
<path fill="#1E2B4C" opacity="1.000000" stroke="none" 
	d="
M159.440765,85.954865 
	C161.466431,86.132759 163.076492,86.337395 164.911667,86.237717 
	C166.588486,86.055519 168.040176,86.177643 169.728561,86.319679 
	C169.728561,91.173187 169.728561,95.744530 169.728561,100.657822 
	C165.234421,100.657822 161.006042,100.657822 156.022141,100.657822 
	C156.022141,96.477509 155.855515,92.378853 156.158340,88.315170 
	C156.221268,87.470795 158.024155,86.756081 159.440765,85.954865 
z"/>
<path fill="#1E2B4C" opacity="1.000000" stroke="none" 
	d="
M150.001938,362.596710 
	C150.002457,364.403809 150.001633,365.774109 150.002045,367.555420 
	C150.371414,370.834747 149.459137,372.306519 146.221985,372.051849 
	C143.116486,371.807526 139.976730,371.999054 136.427567,371.999054 
	C136.427567,367.307159 136.427567,362.978577 136.427567,358.013947 
	C140.156677,358.013947 143.747482,358.065613 147.336075,357.998657 
	C150.582901,357.938110 149.884781,360.281647 150.001938,362.596710 
z"/>
<path fill="#000000" opacity="1.000000" stroke="none" 
	d="
M456.615967,169.770676 
	C457.096069,168.536224 457.409027,167.632828 458.161316,165.461212 
	C465.343536,184.097824 472.098785,201.626480 479.043518,219.646851 
	C465.179382,219.646851 451.857910,219.646851 437.963501,219.646851 
	C444.229156,202.853439 450.338989,186.477585 456.615967,169.770676 
z"/>
<path fill="#000000" opacity="1.000000" stroke="none" 
	d="
M664.372559,163.779984 
	C670.988342,177.640060 668.937744,198.241669 656.774231,207.469742 
	C653.160522,210.211349 648.360352,211.980270 643.851196,212.792465 
	C638.849182,213.693420 633.554810,213.098663 628.393921,212.946640 
	C624.867798,212.842758 622.827087,211.598816 622.889954,207.232178 
	C623.151611,189.074173 622.995605,170.910217 623.009399,152.748444 
	C623.010376,151.437103 623.144104,150.125854 623.243469,148.315353 
	C636.883972,147.608093 650.365356,146.462326 660.585327,158.138580 
	C661.982727,159.735077 662.991516,161.671738 664.372559,163.779984 
z"/>
<path fill="#000000" opacity="1.000000" stroke="none" 
	d="
M837.410889,188.271057 
	C849.405579,195.786942 852.614624,207.761566 854.947693,220.133926 
	C857.102783,231.562393 855.942932,242.881042 852.966431,254.010803 
	C850.555481,263.025726 845.770508,270.498322 836.967163,274.423401 
	C826.331421,279.165405 812.983032,274.215485 807.324829,262.251801 
	C797.998108,242.531525 797.193604,221.973648 805.305176,201.572617 
	C809.929626,189.941879 822.266235,181.804047 837.410889,188.271057 
z"/>
<path fill="#000000" opacity="1.000000" stroke="none" 
	d="
M156.001938,163.209290 
	C156.984589,161.821548 157.946671,160.148117 158.949860,160.123093 
	C167.402740,159.912201 175.863159,160.002884 184.659210,160.002884 
	C184.659210,166.335098 184.659210,172.376770 184.659210,178.711243 
	C175.227417,178.711243 165.859467,178.711243 156.000412,178.711243 
	C156.000412,173.576691 156.000412,168.632187 156.001938,163.209290 
z"/>
<path fill="#000000" opacity="1.000000" stroke="none" 
	d="
M163.079529,237.000000 
	C170.518188,237.000000 177.465668,237.000000 184.704224,237.000000 
	C184.704224,243.095947 184.704224,248.801453 184.704224,254.754913 
	C175.261917,254.754913 166.013336,254.754913 156.381348,254.754913 
	C156.381348,249.086960 156.381348,243.377975 156.381348,237.000000 
	C158.403702,237.000000 160.496017,237.000000 163.079529,237.000000 
z"/>
</svg>