<?xml version="1.0" standalone="no"?>
<!DOCTYPE svg PUBLIC "-//W3C//DTD SVG 20010904//EN"
 "http://www.w3.org/TR/2001/REC-SVG-20010904/DTD/svg10.dtd">
<svg version="1.0" xmlns="http://www.w3.org/2000/svg"
 width="456.000000pt" height="456.000000pt" viewBox="0 0 456.000000 456.000000"
 preserveAspectRatio="xMidYMid meet">
<metadata>
Created by potrace 1.14, written by Peter Selinger 2001-2017
</metadata>
<g transform="translate(0.000000,456.000000) scale(0.100000,-0.100000)"
fill="#000000" stroke="none">
<path d="M2375 4409 c-130 -14 -216 -82 -262 -209 -12 -33 -14 -456 -12 -2445
0 -154 0 -507 0 -785 0 -297 5 -527 10 -559 27 -140 126 -244 268 -278 57 -14
274 -19 387 -9 34 3 88 15 120 27 54 19 78 40 259 224 461 466 490 499 521
600 13 39 17 106 20 300 2 138 2 260 -1 272 -4 17 -12 22 -35 20 -17 -1 -31
-4 -31 -7 -1 -3 -3 -117 -4 -255 -1 -158 -7 -267 -14 -295 -19 -70 -67 -134
-212 -281 -74 -75 -201 -207 -284 -293 -148 -154 -227 -221 -275 -232 -14 -3
-56 -8 -95 -10 -38 -3 -80 -6 -92 -8 -12 -2 -24 2 -27 8 -3 6 -5 7 -5 1 -1
-11 -128 -10 -191 2 -19 3 -38 6 -41 5 -4 -1 -30 13 -60 31 -68 41 -122 111
-136 179 -12 59 -13 1612 0 1624 4 4 7 2 7 -4 0 -10 52 -32 95 -40 59 -11 241
-9 300 3 168 35 236 103 397 395 61 110 71 126 90 147 42 45 105 65 203 65 51
0 104 6 121 13 17 7 73 54 124 104 51 50 100 92 109 92 52 5 135 -4 165 -16
79 -33 178 -182 194 -290 3 -27 6 -207 6 -400 0 -301 -3 -359 -18 -415 -21
-76 -65 -163 -105 -205 -37 -41 -52 -70 -45 -89 28 -74 179 120 221 284 20 80
21 108 21 449 -1 400 -3 423 -61 540 -36 71 -84 131 -136 170 -35 25 -36 29
-39 96 -2 39 -5 84 -8 100 -3 17 -7 44 -10 60 -35 216 -148 417 -263 468 -38
16 -69 19 -235 21 l-191 1 -2 76 c-1 90 -16 128 -73 192 -74 84 -164 111 -239
73 -57 -30 -58 -40 -56 -484 1 -297 -2 -412 -11 -439 -14 -41 -90 -123 -148
-160 -34 -22 -47 -24 -117 -21 -69 3 -80 1 -85 -14 -3 -10 -2 -28 1 -39 7 -20
12 -21 104 -17 63 4 108 11 130 22 46 24 168 147 185 187 12 28 15 112 16 464
0 251 4 433 10 439 14 14 69 9 98 -10 33 -22 80 -72 96 -104 8 -15 13 -55 12
-100 -1 -60 3 -80 19 -105 l21 -30 210 -5 c211 -5 211 -5 251 -33 108 -75 191
-280 209 -518 l5 -76 -66 4 c-37 2 -81 -1 -99 -7 -19 -6 -70 -48 -122 -100
-49 -50 -98 -93 -108 -96 -10 -4 -60 -7 -110 -9 -155 -4 -218 -39 -289 -162
-58 -100 -104 -181 -119 -213 -7 -14 -15 -27 -18 -30 -3 -3 -12 -17 -20 -32
-22 -39 -99 -118 -116 -118 -8 0 -14 -4 -14 -9 0 -9 -74 -37 -127 -48 -32 -6
-144 -7 -216 -3 -55 4 -111 33 -141 73 -21 28 -21 29 -21 1005 1 537 4 997 8
1021 12 75 83 149 164 170 48 13 240 16 318 6 84 -11 196 -54 268 -101 75 -50
388 -355 430 -419 15 -22 28 -58 31 -79 7 -52 26 -72 56 -56 19 10 22 18 17
56 -9 88 -48 143 -220 316 -177 177 -201 200 -263 239 -133 87 -243 119 -421
122 -70 2 -155 0 -188 -4z"/>
<path d="M1330 4359 c-144 -24 -215 -76 -526 -390 -157 -158 -270 -280 -281
-304 -42 -86 -25 -217 38 -289 52 -59 98 -71 198 -50 13 3 60 40 105 83 96 92
115 103 181 107 27 1 111 5 186 9 95 6 142 4 157 -4 22 -12 42 -65 42 -113 0
-25 -4 -28 -37 -29 -21 -1 -41 -1 -45 0 -9 1 -7 -175 2 -189 4 -7 42 -10 96
-8 l89 3 0 89 0 90 -43 11 c-24 5 -40 14 -36 18 23 23 -18 165 -49 168 -46 5
-75 7 -177 14 -186 12 -261 10 -296 -8 -17 -9 -62 -47 -100 -85 -65 -65 -116
-100 -139 -97 -35 5 -66 20 -83 38 -21 23 -42 86 -42 127 0 75 13 92 289 365
147 146 289 282 316 300 104 74 173 85 502 76 43 -1 59 -6 85 -30 l33 -29 3
-364 c1 -200 2 -392 2 -428 0 -62 1 -66 23 -65 48 1 47 -10 44 444 l-2 428
-28 41 c-50 71 -84 81 -287 80 -96 -1 -195 -5 -220 -9z"/>
<path d="M2586 4083 c-2 -2 -22 -5 -44 -7 -55 -4 -101 -34 -125 -80 -18 -34
-20 -58 -20 -206 0 -92 3 -171 6 -177 4 -5 19 -9 34 -8 l28 1 5 179 c3 99 9
188 14 197 8 17 49 25 156 31 42 2 45 4 45 30 0 15 -4 28 -10 29 -5 1 -27 5
-47 8 -21 4 -39 5 -42 3z"/>
<path d="M1330 4062 c-13 -2 -39 -17 -58 -33 -29 -26 -40 -29 -97 -29 -36 0
-65 -3 -66 -7 -4 -29 -4 -140 -1 -150 3 -9 29 -13 83 -13 l79 0 1 33 c2 95 21
141 66 158 31 12 198 10 230 -2 36 -13 47 -47 48 -148 0 -78 3 -94 16 -96 11
-2 16 6 16 29 0 17 2 65 3 106 3 134 -19 153 -185 155 -60 1 -121 0 -135 -3z"/>
<path d="M1595 3762 c-38 -8 -45 -22 -45 -92 0 -42 5 -71 13 -77 12 -10 134
-9 145 1 10 11 8 147 -3 155 -12 11 -82 19 -110 13z"/>
<path d="M1815 3364 c-7 -3 -9 -27 -5 -64 l6 -59 -42 -7 -42 -6 1 -89 c1 -49
7 -90 12 -92 6 -2 48 -3 95 -3 l85 1 0 95 c0 101 3 96 -52 99 -21 1 -23 6 -23
55 0 52 -13 78 -35 70z"/>
<path d="M3237 3346 c-9 -9 -12 -53 -10 -157 2 -169 -9 -244 -39 -260 -11 -6
-59 -13 -107 -15 -69 -4 -93 -10 -123 -29 -46 -30 -91 -88 -86 -112 5 -28 41
-27 72 2 60 55 73 60 188 68 74 6 116 31 147 90 23 45 24 58 25 223 1 97 -1
179 -4 183 -10 15 -51 19 -63 7z"/>
<path d="M294 3311 c-2 -2 -4 -32 -4 -67 0 -52 -4 -67 -25 -92 -42 -50 -58
-95 -70 -197 -3 -32 -9 -64 -13 -70 -10 -16 -10 -818 1 -887 17 -117 47 -160
215 -313 122 -112 153 -132 216 -134 14 -1 17 -6 12 -25 -3 -14 -1 -28 5 -32
19 -11 143 -4 151 9 5 7 7 44 6 82 l-3 70 -78 1 c-43 0 -80 -3 -83 -8 -3 -5
-6 -25 -6 -45 0 -20 -3 -32 -6 -26 -4 5 -22 15 -39 22 -44 18 -189 160 -246
242 -82 116 -79 97 -84 604 -2 248 -4 461 -4 475 -2 67 13 147 31 172 11 15
20 31 20 37 0 15 28 21 96 21 44 0 64 4 65 13 2 50 0 140 -5 144 -7 7 -145 10
-152 4z"/>
<path d="M1063 3253 c3 -17 0 -36 -9 -47 -8 -11 -14 -15 -14 -8 0 7 -7 9 -17
5 -41 -15 -61 -58 -59 -120 2 -63 20 -90 155 -229 116 -119 120 -121 276 -118
l100 2 -1 -92 c-1 -50 2 -96 7 -102 10 -13 443 -14 455 -1 12 11 12 327 1 334
-14 9 -446 7 -454 -1 -9 -9 -10 -13 -12 -66 l-1 -39 -97 3 c-54 2 -108 4 -119
5 -24 1 -237 209 -261 255 -22 43 -7 136 23 136 13 0 35 -40 33 -58 -4 -27 5
-30 84 -27 45 1 87 3 93 4 7 1 11 33 10 94 l-1 92 -99 3 -99 3 6 -28z m840
-417 c23 -5 24 -8 23 -123 -1 -65 -5 -123 -9 -129 -4 -8 -65 -11 -194 -10
l-188 1 -1 125 c0 69 1 130 3 135 3 11 325 12 366 1z"/>
<path d="M476 2990 c-1 -3 -2 -63 -2 -135 l1 -130 135 -2 c94 -1 137 2 142 10
4 7 8 31 8 55 0 40 2 43 23 36 92 -28 143 -73 256 -226 108 -145 199 -217 321
-254 54 -17 204 -22 383 -13 63 4 71 2 89 -21 17 -21 19 -35 15 -89 -3 -47
-10 -68 -23 -78 -20 -15 -142 -16 -160 -2 -6 5 -41 10 -79 12 -88 4 -115 -10
-202 -103 -95 -101 -143 -122 -143 -65 0 34 -14 39 -112 40 -82 1 -88 0 -89
-19 -4 -80 -4 -135 1 -156 6 -25 8 -25 91 -22 87 4 111 13 107 41 -2 12 11 19
52 29 47 12 66 25 130 86 41 40 84 78 95 83 20 11 124 21 249 24 55 2 74 7 95
25 15 13 28 29 28 36 9 149 -1 203 -37 216 -11 4 -50 7 -88 6 -37 -1 -73 3
-80 9 -7 5 -54 11 -105 12 -173 4 -255 28 -346 103 -55 44 -57 46 -128 147
-85 118 -177 208 -237 228 -27 9 -62 17 -78 17 -21 0 -28 5 -29 20 -1 11 -3
29 -4 40 -1 11 -3 26 -4 33 -1 11 -30 14 -137 13 -74 0 -137 -3 -138 -6z"/>
<path d="M2629 2599 c-7 -4 -14 -34 -15 -68 -6 -120 -74 -187 -186 -183 -50 2
-59 0 -69 -20 -10 -18 -8 -24 10 -39 40 -32 178 -8 228 40 66 63 86 98 90 164
7 92 -16 133 -58 106z"/>
<path d="M481 2520 c-9 -20 -8 -247 1 -256 4 -3 31 -7 60 -8 l53 -1 -2 -45
c-8 -141 -7 -158 12 -201 26 -59 57 -101 139 -184 153 -157 173 -196 175 -350
2 -87 6 -106 29 -149 29 -54 69 -88 122 -105 40 -12 142 -17 158 -7 7 4 10
-11 8 -46 -1 -29 2 -61 6 -70 10 -21 54 -24 60 -5 3 6 5 67 6 134 0 68 3 127
7 132 3 5 18 7 33 4 15 -3 36 -5 47 -4 11 1 25 2 30 2 6 0 69 -2 140 -3 l130
-3 0 -74 0 -75 55 0 c58 0 72 -9 65 -41 -8 -36 -16 -294 -18 -560 -2 -235 -4
-263 -21 -292 -28 -45 -76 -63 -184 -68 -51 -2 -97 -7 -102 -10 -6 -3 -10 -3
-11 2 -2 21 -10 57 -14 61 -3 3 -108 5 -155 3 -6 -1 -10 -33 -9 -80 1 -78 2
-80 28 -85 14 -3 51 -4 81 -2 l55 2 8 42 c7 35 11 41 25 34 9 -5 38 -10 63
-11 26 -1 62 -6 80 -11 80 -23 194 49 219 139 14 50 13 594 -1 608 -6 6 -11
62 -12 137 -2 142 -8 133 78 138 l40 3 3 129 c2 79 -1 131 -7 135 -5 4 -65 6
-132 4 -129 -2 -141 -6 -133 -49 2 -12 -1 -26 -8 -30 -7 -4 -94 -8 -195 -8
-139 -1 -183 2 -184 12 -1 6 -2 30 -3 51 -1 42 -8 54 -31 57 -30 4 -40 -27
-41 -130 l-1 -101 -66 1 c-87 2 -122 17 -152 68 -20 35 -23 54 -24 139 0 167
-27 219 -209 404 -106 107 -113 119 -132 237 -4 28 -7 67 -6 86 l1 35 50 0
c28 0 53 5 56 10 3 6 5 66 5 135 l-1 125 -134 5 c-112 4 -134 3 -140 -10z"/>
<path d="M3551 2451 c-19 -12 -24 -360 -6 -438 20 -85 63 -148 134 -194 34
-22 48 -26 58 -18 23 20 14 40 -47 105 -40 43 -63 78 -71 106 -6 23 -12 130
-12 242 -2 193 -3 201 -22 204 -11 1 -26 -2 -34 -7z"/>
<path d="M3270 2260 c-6 -12 -13 -52 -15 -89 -1 -38 -10 -85 -20 -105 -20 -42
-175 -200 -219 -223 -21 -11 -69 -15 -181 -17 -186 -4 -214 -14 -320 -121
-151 -153 -180 -191 -166 -214 16 -25 56 1 166 108 61 59 124 116 140 126 39
24 201 35 203 14 2 -35 2 -156 -1 -169 -2 -8 -7 -31 -11 -50 -9 -41 -52 -100
-112 -153 -24 -21 -53 -54 -65 -74 -20 -31 -20 -36 -6 -50 14 -14 19 -14 51 6
51 32 161 154 188 209 19 40 23 67 26 170 2 67 8 123 13 123 5 1 12 2 17 3 4
1 25 5 47 10 48 9 86 36 183 130 106 103 134 151 140 239 5 83 -7 141 -30 145
-9 2 -22 -6 -28 -18z"/>
<path d="M1925 1902 c-3 -4 -95 -7 -203 -8 -108 -1 -205 -2 -215 -3 -16 -1
-17 -14 -16 -156 1 -86 6 -158 12 -162 11 -6 449 -4 456 3 3 3 6 74 7 158 1
136 -1 154 -16 164 -10 6 -21 8 -25 4z m0 -167 l0 -120 -195 0 -195 0 -1 110
c0 61 2 115 4 122 3 9 52 12 195 10 l192 -2 0 -120z"/>
<path d="M3271 1651 c-11 -7 -15 -37 -17 -125 -3 -133 -9 -183 -28 -211 -7
-11 -52 -58 -99 -105 -83 -83 -143 -171 -133 -197 3 -7 2 -13 -2 -13 -11 0
-12 -98 -2 -126 10 -25 43 -33 55 -14 4 6 8 30 10 53 13 136 12 135 140 265
91 91 105 111 124 163 9 24 13 26 48 20 57 -9 91 -3 98 20 11 34 -10 46 -73
44 -37 -1 -59 2 -60 9 -1 6 -2 56 -2 111 -2 111 -15 134 -59 106z"/>
<path d="M169 1433 c-5 -83 -2 -136 6 -141 12 -7 135 -11 153 -4 7 2 12 14 10
26 -3 21 -1 21 186 22 238 0 228 7 231 -137 2 -57 4 -116 4 -130 1 -31 35 -75
135 -179 40 -41 82 -88 94 -105 46 -60 145 -153 191 -178 63 -35 128 -48 232
-48 105 0 133 12 159 66 24 49 28 203 7 245 -7 14 -12 51 -11 83 1 31 -2 57
-8 57 -5 0 -6 5 -3 10 3 6 17 8 30 6 13 -3 28 1 34 7 12 16 23 154 12 161 -9
6 -35 7 -114 6 l-48 -1 3 -82 c3 -80 3 -82 30 -85 l26 -3 -4 -77 c-2 -42 -6
-125 -8 -185 -3 -69 -9 -113 -17 -123 -19 -23 -190 -13 -261 15 -41 16 -151
108 -296 246 -137 130 -139 135 -141 263 -2 130 -9 160 -42 184 -35 26 -105
32 -120 10 -9 -14 -10 -15 -6 -1 5 14 -11 16 -144 15 -138 -1 -149 0 -149 17
0 47 -17 57 -95 57 -64 0 -75 -2 -76 -17z"/>
<path d="M2686 1036 c-51 -53 -104 -100 -117 -105 -13 -5 -63 -8 -112 -7 l-87
1 -6 -33 c-4 -18 -4 -35 -1 -38 8 -8 172 -6 205 2 54 13 89 39 175 127 71 73
87 96 85 116 -2 18 -10 27 -26 29 -17 3 -44 -19 -116 -92z"/>
<path d="M434 1111 c-2 -2 -4 -33 -4 -68 0 -58 3 -67 30 -94 16 -17 32 -41 34
-55 16 -86 49 -135 185 -278 253 -263 315 -319 406 -364 64 -32 85 -29 85 12
0 16 -17 31 -67 60 -121 69 -676 646 -589 613 8 -3 18 -2 22 4 4 7 10 6 19 -1
21 -18 36 14 40 83 1 36 -1 70 -5 78 -8 12 -145 21 -156 10z"/>
<path d="M2877 591 c-48 -50 -121 -96 -137 -86 -5 3 -11 2 -13 -2 -5 -8 -160
-9 -185 -2 -23 7 -38 -26 -25 -54 11 -23 14 -24 111 -22 159 4 207 21 286 101
51 52 67 91 45 105 -24 15 -34 10 -82 -40z"/>
</g>
</svg>
