<?xml version="1.0" encoding="UTF-8"?>
<svg xmlns="http://www.w3.org/2000/svg" xmlns:xlink="http://www.w3.org/1999/xlink" width="36px" height="36px" viewBox="0 0 36 36" version="1.1">
<g id="surface1">
<path style=" stroke:none;fill-rule:nonzero;fill:rgb(0%,0%,0%);fill-opacity:1;" d="M 26.675781 14.851562 C 27.261719 14.550781 27.847656 14.421875 28.464844 14.492188 C 29.140625 14.566406 29.632812 14.289062 30.054688 13.871094 C 30.710938 13.21875 31.351562 12.558594 32.476562 12.660156 C 32.765625 12.6875 32.847656 12.46875 32.832031 12.246094 C 32.71875 10.804688 32.351562 9.449219 31.234375 8.339844 C 30.855469 7.960938 30.355469 7.875 29.832031 7.867188 C 29.066406 7.859375 28.304688 7.867188 27.542969 7.851562 C 26.601562 7.828125 26.261719 7.519531 26.375 6.6875 C 26.484375 5.890625 25.96875 5.433594 25.378906 5.019531 C 25.015625 4.765625 24.707031 4.984375 24.703125 5.488281 C 24.691406 7.351562 24.695312 9.21875 24.695312 11.085938 C 24.695312 12.914062 23.121094 14.277344 21.109375 14.199219 C 20.753906 14.183594 20.390625 14.152344 20.363281 13.75 C 20.328125 13.289062 20.761719 13.203125 21.101562 13.242188 C 22.023438 13.351562 22.601562 12.9375 23.179688 12.371094 C 23.605469 11.953125 23.6875 11.484375 23.691406 10.976562 C 23.703125 9.089844 23.703125 7.203125 23.691406 5.316406 C 23.691406 4.828125 23.710938 4.339844 24.292969 4.132812 C 24.871094 3.929688 25.5 3.882812 26.019531 4.257812 C 26.785156 4.8125 27.441406 5.457031 27.386719 6.441406 C 27.367188 6.8125 27.554688 6.949219 27.949219 6.941406 C 28.574219 6.929688 29.203125 6.949219 29.832031 6.933594 C 31.144531 6.898438 32.066406 7.496094 32.667969 8.476562 C 33.398438 9.675781 33.832031 10.976562 33.839844 12.363281 C 33.84375 12.757812 33.988281 13.046875 34.320312 13.308594 C 35.472656 14.214844 35.992188 15.386719 35.992188 16.757812 C 35.992188 18.421875 35.980469 20.085938 36 21.75 C 36.015625 23.082031 35.441406 24.1875 34.503906 25.167969 C 34.277344 25.40625 34.015625 25.652344 33.65625 25.386719 C 33.265625 25.101562 33.480469 24.796875 33.722656 24.542969 C 34.703125 23.527344 35.070312 22.34375 35.019531 21.003906 C 34.96875 19.644531 34.996094 18.285156 35.015625 16.925781 C 35.03125 15.875 34.617188 14.984375 33.878906 14.207031 C 33.121094 13.410156 32.078125 13.390625 31.238281 14.121094 C 30.625 14.65625 30.144531 15.382812 29.132812 15.402344 C 28.578125 15.410156 28.015625 15.339844 27.472656 15.546875 C 27.132812 15.679688 26.839844 15.839844 26.652344 16.140625 C 26.179688 16.898438 25.6875 17.648438 25.21875 18.410156 C 24.367188 19.785156 23.097656 20.511719 21.339844 20.5 C 20.515625 20.496094 19.6875 20.582031 18.910156 20.332031 C 18.703125 20.535156 18.753906 20.75 18.753906 20.941406 C 18.75 24.839844 18.773438 28.734375 18.734375 32.632812 C 18.71875 34 19.84375 35.070312 21.253906 34.972656 C 21.898438 34.929688 22.554688 34.945312 23.203125 34.988281 C 24.289062 35.0625 25.140625 34.710938 25.886719 33.992188 C 27.398438 32.523438 28.9375 31.078125 30.511719 29.667969 C 31.265625 28.996094 31.507812 28.199219 31.519531 27.304688 C 31.53125 26.328125 31.519531 25.355469 31.511719 24.382812 C 31.507812 24.019531 31.597656 23.691406 32.046875 23.667969 C 32.53125 23.644531 32.519531 24.015625 32.519531 24.324219 C 32.519531 25.582031 32.550781 26.839844 32.488281 28.097656 C 32.457031 28.816406 32.121094 29.484375 31.570312 30.011719 C 29.832031 31.675781 28.089844 33.339844 26.304688 34.960938 C 25.542969 35.65625 24.601562 36.054688 23.460938 35.984375 C 22.769531 35.941406 22.070312 35.976562 21.375 35.972656 C 19.195312 35.96875 17.652344 34.589844 17.648438 32.597656 C 17.640625 27.320312 17.644531 22.042969 17.644531 16.769531 C 17.644531 12.222656 17.644531 7.675781 17.648438 3.132812 C 17.652344 1.164062 18.90625 0.0976562 21.070312 0.015625 C 23.699219 -0.0820312 25.902344 0.652344 27.679688 2.425781 C 28.3125 3.054688 29.003906 3.636719 29.667969 4.242188 C 30.105469 4.640625 30.363281 5.132812 30.53125 5.664062 C 30.652344 6.050781 30.460938 6.332031 30.082031 6.429688 C 29.671875 6.535156 29.507812 6.210938 29.46875 5.933594 C 29.386719 5.34375 29.003906 4.953125 28.566406 4.558594 C 27.757812 3.832031 26.988281 3.066406 26.140625 2.371094 C 25.058594 1.480469 23.792969 1.054688 22.351562 1.019531 C 21.769531 1.003906 21.1875 1 20.605469 1.015625 C 19.476562 1.050781 18.769531 1.707031 18.769531 2.722656 C 18.761719 7.917969 18.761719 13.113281 18.757812 18.308594 C 18.757812 19.097656 19.230469 19.546875 20.117188 19.570312 C 20.808594 19.585938 21.496094 19.652344 22.1875 19.488281 C 23.347656 19.21875 24.050781 18.5 24.585938 17.59375 C 24.914062 17.039062 25.253906 16.488281 25.5625 15.925781 C 25.808594 15.476562 26.128906 15.101562 26.675781 14.851562 Z M 26.675781 14.851562 "/>
<path style=" stroke:none;fill-rule:nonzero;fill:rgb(0%,0%,0%);fill-opacity:1;" d="M 4.613281 21.105469 C 3.972656 20.441406 3.675781 19.734375 3.882812 18.886719 C 3.980469 18.5 3.929688 18.1875 3.359375 18.203125 C 3.019531 18.210938 2.878906 18.023438 2.875 17.738281 C 2.871094 17.210938 2.871094 16.683594 2.871094 16.15625 C 2.875 15.785156 3.066406 15.59375 3.492188 15.605469 C 4.007812 15.617188 4.523438 15.617188 5.039062 15.613281 C 5.519531 15.609375 5.730469 15.835938 5.730469 16.253906 C 5.730469 16.621094 5.722656 16.984375 5.734375 17.347656 C 5.75 17.832031 5.722656 18.242188 4.980469 18.238281 C 4.542969 18.234375 4.671875 18.5625 4.683594 18.832031 C 4.722656 20.003906 5.527344 20.761719 6.410156 21.457031 C 7.511719 22.320312 7.964844 23.398438 7.929688 24.691406 C 7.917969 25.121094 7.964844 25.542969 8.449219 25.800781 C 9.234375 26.214844 9.726562 25.976562 9.742188 25.167969 C 9.746094 24.945312 9.75 24.722656 9.785156 24.503906 C 9.824219 24.285156 9.964844 24.128906 10.234375 24.121094 C 10.492188 24.117188 10.699219 24.242188 10.699219 24.472656 C 10.699219 25.070312 11.121094 25.09375 11.605469 25.085938 C 12.097656 25.078125 12.589844 25.078125 13.082031 25.09375 C 13.507812 25.105469 13.839844 25.089844 14.015625 24.617188 C 14.15625 24.242188 16.601562 24.210938 16.742188 24.585938 C 16.992188 25.265625 16.902344 25.984375 16.792969 26.683594 C 16.769531 26.824219 16.589844 26.929688 16.433594 26.925781 C 15.757812 26.917969 15.769531 27.320312 15.792969 27.753906 C 15.894531 29.636719 15.96875 31.519531 15.914062 33.40625 C 15.890625 34.316406 15.46875 34.984375 14.515625 35.367188 C 14.167969 35.503906 13.875 35.421875 13.542969 35.359375 C 13.019531 35.257812 12.535156 35.097656 12.070312 35.660156 C 11.753906 36.042969 11.035156 35.933594 10.5625 35.703125 C 10.054688 35.453125 10.277344 34.933594 10.320312 34.535156 C 10.371094 34.082031 10.824219 34.085938 11.210938 34.082031 C 11.621094 34.074219 12.09375 33.953125 12.246094 34.496094 C 12.261719 34.554688 12.375 34.621094 12.445312 34.625 C 13.148438 34.6875 13.851562 34.617188 14.4375 34.269531 C 15.085938 33.886719 14.925781 33.207031 14.902344 32.652344 C 14.835938 31.109375 14.835938 29.574219 15.035156 28.039062 C 15.074219 27.722656 15.039062 27.398438 15.039062 27.136719 C 14.878906 26.9375 14.710938 26.964844 14.558594 26.960938 C 14.117188 26.945312 13.890625 26.742188 13.921875 26.34375 C 13.960938 25.851562 13.703125 25.707031 13.195312 25.730469 C 12.59375 25.757812 11.988281 25.75 11.382812 25.730469 C 10.90625 25.714844 10.671875 25.851562 10.722656 26.324219 C 10.761719 26.6875 10.722656 27.054688 10.722656 27.417969 C 10.722656 27.71875 10.597656 27.941406 10.238281 27.96875 C 9.886719 27.992188 9.742188 27.761719 9.753906 27.503906 C 9.773438 27.027344 9.460938 26.9375 9.042969 26.886719 C 7.535156 26.691406 6.816406 25.964844 6.886719 24.597656 C 6.941406 23.582031 6.574219 22.789062 5.726562 22.136719 C 5.335938 21.835938 5.003906 21.472656 4.613281 21.105469 Z M 4.613281 21.105469 "/>
<path style=" stroke:none;fill-rule:nonzero;fill:rgb(0%,0%,0%);fill-opacity:1;" d="M 11.414062 1.394531 C 9.582031 1.539062 8.535156 2.699219 7.402344 3.726562 C 6.484375 4.554688 5.628906 5.445312 4.679688 6.242188 C 4.144531 6.691406 4.058594 7.199219 4.125 7.777344 C 4.199219 8.433594 4.992188 8.746094 5.582031 8.359375 C 5.800781 8.214844 6.042969 8.070312 6.179688 7.871094 C 6.925781 6.800781 8.097656 6.855469 9.234375 6.964844 C 9.789062 7.019531 10.339844 7.0625 10.898438 7.089844 C 11.679688 7.132812 12.074219 7.464844 12.175781 8.164062 C 12.199219 8.320312 12.144531 8.507812 12.339844 8.601562 C 12.550781 8.703125 12.859375 8.726562 12.871094 9.003906 C 12.890625 9.445312 12.875 9.890625 12.847656 10.335938 C 12.839844 10.484375 12.683594 10.570312 12.527344 10.613281 C 12.460938 10.632812 12.394531 10.632812 12.328125 10.640625 C 10.886719 10.792969 10.359375 10.207031 10.789062 8.945312 C 10.839844 8.792969 10.9375 8.695312 11.105469 8.667969 C 11.421875 8.621094 11.492188 8.429688 11.457031 8.179688 C 11.414062 7.890625 11.21875 7.753906 10.90625 7.75 C 10.371094 7.746094 9.816406 7.832031 9.304688 7.78125 C 7.933594 7.65625 7.0625 8.3125 6.148438 9.070312 C 5.097656 9.941406 3.363281 9.351562 3.148438 8.074219 C 2.980469 7.09375 3.152344 6.214844 4.035156 5.476562 C 5.359375 4.359375 6.605469 3.160156 7.886719 1.996094 C 8.957031 1.023438 10.207031 0.433594 11.769531 0.476562 C 12.484375 0.5 13.203125 0.472656 13.917969 0.476562 C 15.070312 0.484375 15.84375 1.125 15.859375 2.152344 C 15.902344 4.441406 16 6.726562 15.796875 9.015625 C 15.765625 9.363281 15.75 9.628906 16.207031 9.902344 C 16.765625 10.238281 16.488281 10.914062 16.414062 11.4375 C 16.355469 11.847656 15.914062 11.75 15.589844 11.765625 C 15.433594 11.773438 15.277344 11.769531 15.121094 11.777344 C 14.539062 11.804688 14.269531 11.636719 14.328125 11.035156 C 14.382812 10.5 14.207031 9.945312 14.945312 9.660156 C 15.101562 9.597656 15.085938 9.332031 15.054688 9.144531 C 14.757812 7.394531 14.992188 5.632812 14.925781 3.875 C 14.90625 3.347656 14.914062 2.820312 14.878906 2.296875 C 14.835938 1.636719 14.5625 1.398438 13.828125 1.386719 C 13.042969 1.371094 12.257812 1.386719 11.414062 1.394531 Z M 11.414062 1.394531 "/>
<path style=" stroke:none;fill-rule:nonzero;fill:rgb(0%,0%,0%);fill-opacity:1;" d="M 5.992188 12.675781 C 7.414062 12.921875 8.132812 13.871094 8.835938 14.8125 C 9.742188 16.035156 10.890625 16.824219 12.609375 16.707031 C 13.507812 16.648438 14.363281 16.96875 15.265625 16.957031 C 15.742188 16.953125 16.082031 17.265625 16.089844 17.757812 C 16.09375 17.960938 16.09375 18.164062 16.09375 18.367188 C 16.085938 19.324219 15.828125 19.589844 14.785156 19.546875 C 14.078125 19.515625 13.425781 19.785156 12.730469 19.777344 C 12.542969 19.773438 12.394531 19.886719 12.269531 20.003906 C 11.691406 20.542969 10.972656 20.914062 10.328125 21.351562 C 9.6875 21.789062 9.125 21.726562 8.492188 21.75 C 8.101562 21.761719 7.902344 21.589844 7.945312 21.226562 C 7.957031 21.144531 7.953125 21.0625 7.964844 20.984375 C 8.027344 20.632812 7.761719 20.167969 8.152344 19.957031 C 8.617188 19.703125 9.199219 19.847656 9.730469 19.867188 C 10.015625 19.878906 10.03125 20.207031 10.292969 20.300781 C 10.773438 20.078125 11.15625 19.730469 11.507812 19.375 C 12.085938 18.792969 12.78125 18.65625 13.574219 18.800781 C 13.90625 18.859375 14.238281 18.878906 14.574219 18.898438 C 15.125 18.929688 15.394531 18.773438 15.390625 18.21875 C 15.382812 17.632812 15.039062 17.511719 14.527344 17.589844 C 13.601562 17.738281 12.671875 17.804688 11.734375 17.675781 C 9.8125 17.417969 8.640625 16.246094 7.636719 14.882812 C 7.070312 14.121094 6.660156 13.804688 5.914062 13.644531 C 5.460938 14.429688 5.460938 14.429688 4.421875 14.425781 C 4.128906 14.425781 3.839844 14.414062 3.546875 14.425781 C 3.050781 14.453125 2.863281 14.226562 2.871094 13.800781 C 2.875 13.335938 2.863281 12.871094 2.855469 12.402344 C 2.851562 12.003906 3.046875 11.796875 3.503906 11.8125 C 3.683594 11.820312 3.863281 11.824219 4.042969 11.816406 C 4.847656 11.785156 5.707031 11.644531 5.992188 12.675781 Z M 5.992188 12.675781 "/>
<path style=" stroke:none;fill-rule:nonzero;fill:rgb(0%,0%,0%);fill-opacity:1;" d="M 1.84375 24.824219 C 2.039062 25.125 2.3125 25.113281 2.582031 25.113281 C 3.234375 25.113281 3.882812 25.105469 4.53125 25.117188 C 5.582031 25.132812 6.195312 25.613281 6.054688 26.539062 C 5.8125 28.128906 6.984375 28.914062 8.082031 29.75 C 8.367188 29.96875 8.699219 30.152344 8.945312 30.414062 C 9.6875 31.195312 10.632812 31.425781 11.722656 31.324219 C 11.949219 31.304688 12.25 31.304688 12.230469 31.042969 C 12.171875 30.269531 12.503906 29.53125 12.457031 28.761719 C 12.449219 28.636719 12.445312 28.507812 12.300781 28.453125 C 11.804688 28.277344 11.863281 27.898438 11.867188 27.53125 C 11.882812 26.742188 11.949219 26.675781 12.839844 26.679688 C 13.160156 26.683594 13.570312 26.570312 13.683594 26.980469 C 13.800781 27.429688 14.011719 27.992188 13.566406 28.300781 C 12.996094 28.699219 13.09375 29.132812 13.253906 29.585938 C 13.453125 30.148438 13.421875 30.710938 13.355469 31.273438 C 13.277344 31.902344 12.785156 32.261719 12.085938 32.320312 C 10.109375 32.480469 8.628906 31.773438 7.511719 30.3125 C 7.132812 29.816406 6.640625 29.378906 6.132812 28.988281 C 5.539062 28.539062 5.367188 28.007812 5.378906 27.332031 C 5.40625 25.769531 5.378906 25.765625 3.652344 25.761719 C 3.316406 25.761719 2.980469 25.769531 2.644531 25.757812 C 2.292969 25.746094 2.042969 25.816406 1.804688 26.117188 C 1.445312 26.570312 0.851562 26.367188 0.367188 26.3125 C -0.0898438 26.257812 0.0078125 25.867188 0.0117188 25.570312 C 0.0195312 24.589844 0.695312 24.292969 1.84375 24.824219 Z M 1.84375 24.824219 "/>
<path style=" stroke:none;fill-rule:nonzero;fill:rgb(0%,0%,0%);fill-opacity:1;" d="M 0.03125 14.164062 C 0.09375 12.828125 0.140625 11.550781 1 10.445312 C 1.148438 10.257812 1.140625 10.019531 1.113281 9.796875 C 1.074219 9.472656 1.152344 9.175781 1.546875 9.171875 C 2.011719 9.164062 2.574219 8.949219 2.914062 9.417969 C 3.386719 10.070312 2.9375 10.859375 2.101562 10.894531 C 1.351562 10.921875 0.675781 11.980469 0.964844 12.789062 C 1.113281 13.210938 1.140625 13.621094 1.140625 14.042969 C 1.144531 15.871094 1.195312 17.699219 1.125 19.523438 C 1.085938 20.578125 1.660156 21.332031 2.304688 22.082031 C 2.566406 22.386719 2.898438 22.636719 3.199219 22.90625 C 3.546875 23.214844 3.855469 23.660156 4.328125 22.996094 C 4.476562 22.785156 5.683594 22.863281 5.871094 23.03125 C 6.050781 23.1875 6.085938 24.238281 5.917969 24.4375 C 5.710938 24.6875 4.476562 24.769531 4.289062 24.476562 C 4.046875 24.101562 3.628906 24.035156 3.3125 23.804688 C 2.457031 23.191406 1.597656 22.558594 0.847656 21.84375 C 0.195312 21.21875 0.046875 20.363281 0.0390625 19.519531 C 0.0234375 17.753906 0.03125 15.988281 0.03125 14.164062 Z M 0.03125 14.164062 "/>
<path style=" stroke:none;fill-rule:nonzero;fill:rgb(0%,0%,0%);fill-opacity:1;" d="M 13.128906 12.785156 C 14.132812 12.785156 15.070312 12.792969 16.011719 12.78125 C 16.59375 12.777344 16.886719 13.011719 16.871094 13.550781 C 16.859375 14.140625 16.859375 14.726562 16.851562 15.316406 C 16.84375 15.734375 16.609375 15.957031 16.148438 15.960938 C 15.09375 15.972656 14.042969 15.976562 12.992188 15.980469 C 12.378906 15.980469 12.113281 15.71875 12.132812 15.148438 C 12.160156 14.257812 12.128906 14.179688 11.171875 14.238281 C 10.121094 14.304688 9.367188 13.96875 8.746094 13.242188 C 8.488281 12.9375 8.183594 12.660156 7.855469 12.417969 C 7.207031 11.941406 7.222656 11.320312 7.375 10.695312 C 7.550781 9.96875 9.234375 9.234375 10.003906 9.503906 C 10.179688 9.566406 10.324219 9.671875 10.320312 9.859375 C 10.3125 10.265625 10.296875 10.667969 10.269531 11.074219 C 10.261719 11.199219 10.175781 11.300781 10.054688 11.367188 C 9.683594 11.570312 8.359375 11.339844 8.0625 11.015625 C 7.945312 11.4375 8.078125 11.765625 8.421875 12.054688 C 8.753906 12.328125 9.09375 12.601562 9.359375 12.925781 C 10.003906 13.710938 10.941406 13.535156 11.8125 13.585938 C 11.957031 13.59375 12.089844 13.515625 12.105469 13.378906 C 12.164062 12.828125 12.570312 12.753906 13.128906 12.785156 M 12.863281 14.015625 C 12.863281 14.160156 12.863281 14.300781 12.863281 14.441406 C 12.875 15.230469 12.910156 15.257812 13.777344 15.25 C 14.113281 15.25 14.445312 15.257812 14.78125 15.261719 C 16.214844 15.265625 16.25 15.222656 16.152344 13.941406 C 16.128906 13.621094 16.007812 13.453125 15.636719 13.453125 C 14.875 13.457031 14.117188 13.453125 13.359375 13.457031 C 13.03125 13.457031 12.867188 13.613281 12.863281 14.015625 Z M 12.863281 14.015625 "/>
<path style=" stroke:none;fill-rule:nonzero;fill:rgb(0%,0%,0%);fill-opacity:1;" d="M 27.714844 20.070312 C 28.179688 19.691406 28.183594 19.214844 28.222656 18.75 C 28.234375 18.589844 28.214844 18.421875 28.257812 18.269531 C 28.324219 18.023438 28.464844 17.796875 28.796875 17.824219 C 29.082031 17.847656 29.226562 18.050781 29.25 18.285156 C 29.339844 19.179688 29.246094 20.042969 28.464844 20.699219 C 27.683594 21.347656 27.058594 22.191406 25.925781 22.429688 C 25.613281 22.496094 25.617188 22.765625 25.648438 22.984375 C 25.882812 24.59375 24.851562 25.601562 23.621094 26.515625 C 23.394531 26.683594 23.152344 26.800781 22.914062 26.566406 C 22.699219 26.359375 22.71875 26.109375 22.921875 25.90625 C 23.21875 25.601562 23.523438 25.300781 23.863281 25.039062 C 24.65625 24.4375 24.648438 23.628906 24.605469 22.8125 C 24.589844 22.523438 24.359375 22.476562 24.089844 22.449219 C 23.222656 22.355469 22.65625 22.800781 22.117188 23.304688 C 21.710938 23.683594 21.308594 24.066406 20.898438 24.4375 C 20.691406 24.621094 20.449219 24.730469 20.183594 24.535156 C 19.894531 24.324219 19.933594 24.03125 20.140625 23.832031 C 21.371094 22.648438 22.484375 21.21875 24.621094 21.5 C 25.761719 21.648438 26.5625 21.21875 27.261719 20.496094 C 27.394531 20.359375 27.539062 20.234375 27.714844 20.070312 Z M 27.714844 20.070312 "/>
<path style=" stroke:none;fill-rule:nonzero;fill:rgb(0%,0%,0%);fill-opacity:1;" d="M 7.019531 33.914062 C 5.929688 32.921875 4.878906 31.957031 3.828125 30.992188 C 3.605469 30.789062 3.480469 30.542969 3.351562 30.28125 C 3.136719 29.835938 3.109375 29.296875 2.566406 28.988281 C 2.328125 28.851562 2.351562 27.621094 2.574219 27.484375 C 3.042969 27.199219 3.585938 27.300781 4.054688 27.4375 C 4.503906 27.574219 4.484375 28.75 4.019531 29.050781 C 3.570312 29.34375 3.714844 29.574219 4 29.832031 C 5.226562 30.953125 6.460938 32.070312 7.683594 33.191406 C 8.050781 33.53125 8.464844 33.789062 8.941406 33.984375 C 9.308594 34.132812 9.648438 34.351562 9.449219 34.773438 C 9.234375 35.226562 8.863281 34.96875 8.539062 34.863281 C 7.957031 34.675781 7.511719 34.300781 7.019531 33.914062 Z M 7.019531 33.914062 "/>
<path style=" stroke:none;fill-rule:nonzero;fill:rgb(0%,0%,0%);fill-opacity:1;" d="M 12.667969 5.738281 C 13.179688 5.414062 13.433594 4.214844 13.09375 3.8125 C 12.980469 3.675781 12.820312 3.597656 12.632812 3.597656 C 12.140625 3.59375 11.644531 3.558594 11.15625 3.609375 C 10.671875 3.660156 10.449219 3.953125 10.441406 4.414062 C 10.425781 5.183594 9.523438 5.617188 8.8125 5.1875 C 8.300781 4.878906 8.546875 4.371094 8.558594 3.949219 C 8.566406 3.609375 8.90625 3.542969 9.207031 3.558594 C 9.65625 3.578125 9.984375 3.402344 10.367188 3.199219 C 11.292969 2.714844 12.320312 2.832031 13.285156 3.089844 C 13.765625 3.214844 13.917969 3.679688 13.933594 4.136719 C 13.949219 4.71875 13.765625 5.324219 14.441406 5.78125 C 14.746094 5.988281 14.632812 6.996094 14.359375 7.152344 C 13.910156 7.410156 13.40625 7.265625 12.929688 7.195312 C 12.75 7.167969 12.679688 6.976562 12.671875 6.800781 C 12.65625 6.460938 12.648438 6.121094 12.667969 5.738281 Z M 12.667969 5.738281 "/>
<path style=" stroke:none;fill-rule:nonzero;fill:rgb(0%,0%,0%);fill-opacity:1;" d="M 29.550781 25.75 C 29.234375 25.742188 29.089844 25.886719 28.984375 26.078125 C 28.746094 26.5 28.398438 26.847656 28.007812 27.152344 C 27.292969 27.707031 26.71875 28.3125 26.765625 29.25 C 26.78125 29.523438 26.675781 29.867188 26.257812 29.84375 C 25.839844 29.816406 25.757812 29.480469 25.726562 29.167969 C 25.632812 28.21875 26.058594 27.414062 26.839844 26.871094 C 28.011719 26.0625 28.371094 25.046875 28.179688 23.789062 C 28.144531 23.566406 28.179688 23.339844 28.308594 23.144531 C 28.421875 22.972656 28.59375 22.890625 28.820312 22.917969 C 29.015625 22.941406 29.164062 23.042969 29.210938 23.207031 C 29.261719 23.402344 29.28125 23.609375 29.273438 23.808594 C 29.246094 24.316406 29.214844 24.785156 30.03125 24.785156 C 30.296875 24.785156 30.550781 25 30.496094 25.285156 C 30.410156 25.730469 29.992188 25.734375 29.550781 25.75 Z M 29.550781 25.75 "/>
<path style=" stroke:none;fill-rule:nonzero;fill:rgb(0%,0%,0%);fill-opacity:1;" d="M 15.753906 20.859375 C 16.765625 20.886719 16.800781 20.910156 16.828125 21.742188 C 16.847656 22.246094 16.855469 22.753906 16.84375 23.257812 C 16.835938 23.683594 16.609375 23.933594 16.097656 23.933594 C 15.003906 23.925781 13.910156 23.929688 12.816406 23.933594 C 12.371094 23.933594 12.15625 23.71875 12.148438 23.332031 C 12.136719 22.6875 12.132812 22.039062 12.144531 21.394531 C 12.152344 20.964844 12.484375 20.863281 12.878906 20.863281 C 13.816406 20.859375 14.753906 20.859375 15.753906 20.859375 M 13.613281 23.28125 C 14.015625 23.285156 14.417969 23.285156 14.816406 23.289062 C 16.222656 23.296875 16.207031 23.300781 16.160156 22.035156 C 16.144531 21.628906 15.957031 21.5 15.546875 21.507812 C 15.011719 21.515625 14.476562 21.503906 13.945312 21.503906 C 12.851562 21.507812 12.851562 21.507812 12.871094 22.515625 C 12.871094 22.574219 12.878906 22.636719 12.871094 22.695312 C 12.832031 23.105469 13.035156 23.304688 13.613281 23.28125 Z M 13.613281 23.28125 "/>
<path style=" stroke:none;fill-rule:nonzero;fill:rgb(0%,0%,0%);fill-opacity:1;" d="M 27.539062 12.359375 C 27.988281 12.097656 27.953125 11.707031 27.96875 11.351562 C 27.996094 10.722656 27.980469 10.09375 27.988281 9.464844 C 27.988281 9.144531 28.101562 8.886719 28.511719 8.898438 C 28.875 8.910156 29 9.148438 29.003906 9.445312 C 29.003906 10.234375 29.046875 11.027344 28.992188 11.816406 C 28.917969 12.847656 28.285156 13.394531 27.128906 13.441406 C 26.570312 13.464844 26.078125 13.507812 25.691406 13.941406 C 25.511719 14.140625 25.214844 14.289062 24.933594 14.03125 C 24.652344 13.773438 24.757812 13.539062 24.988281 13.285156 C 25.457031 12.765625 26.019531 12.453125 26.78125 12.511719 C 27.035156 12.53125 27.273438 12.503906 27.539062 12.359375 Z M 27.539062 12.359375 "/>
<path style=" stroke:none;fill-rule:nonzero;fill:rgb(0%,0%,0%);fill-opacity:1;" d="M 21.617188 3.96875 C 21.367188 4.660156 21.511719 5.328125 21.46875 5.992188 C 21.453125 6.191406 21.472656 6.394531 21.457031 6.597656 C 21.4375 6.902344 21.257812 7.09375 20.914062 7.101562 C 20.589844 7.109375 20.394531 6.914062 20.386719 6.652344 C 20.355469 5.765625 20.214844 4.871094 20.457031 3.996094 C 20.722656 3.050781 22.066406 2.492188 23.039062 2.886719 C 23.261719 2.976562 23.414062 3.117188 23.386719 3.351562 C 23.351562 3.640625 23.121094 3.757812 22.835938 3.800781 C 22.445312 3.863281 22.027344 3.726562 21.617188 3.96875 Z M 21.617188 3.96875 "/>
<path style=" stroke:none;fill-rule:nonzero;fill:rgb(0%,0%,0%);fill-opacity:1;" d="M 31.835938 19.800781 C 31.917969 20.273438 32.167969 20.597656 32.511719 20.871094 C 32.644531 20.980469 32.785156 21.085938 32.890625 21.214844 C 33.0625 21.425781 33.121094 21.671875 32.886719 21.875 C 32.6875 22.046875 32.414062 22.027344 32.207031 21.878906 C 31.472656 21.347656 30.882812 20.710938 30.84375 19.816406 C 30.800781 18.847656 30.832031 17.875 30.832031 16.90625 C 30.832031 16.613281 30.839844 16.292969 31.273438 16.277344 C 31.722656 16.261719 31.816406 16.566406 31.820312 16.894531 C 31.828125 17.847656 31.828125 18.796875 31.835938 19.800781 Z M 31.835938 19.800781 "/>
<path style=" stroke:none;fill-rule:nonzero;fill:rgb(0%,0%,0%);fill-opacity:1;" d="M 20.691406 28.988281 C 21.933594 29.179688 22.671875 28.53125 23.394531 27.847656 C 23.695312 27.566406 24.03125 27.101562 24.496094 27.503906 C 24.988281 27.929688 24.410156 28.210938 24.132812 28.492188 C 23.863281 28.761719 23.558594 29.003906 23.273438 29.261719 C 22.558594 29.898438 21.691406 30.054688 20.734375 29.945312 C 20.433594 29.910156 20.132812 29.863281 20.101562 29.515625 C 20.070312 29.183594 20.328125 29.0625 20.691406 28.988281 Z M 20.691406 28.988281 "/>
<path style=" stroke:none;fill-rule:nonzero;fill:rgb(0%,0%,0%);fill-opacity:1;" d="M 22.5625 32.4375 C 23.542969 32.515625 24.347656 32.351562 24.957031 31.644531 C 25.144531 31.433594 25.453125 31.226562 25.761719 31.519531 C 26.03125 31.773438 25.917969 32.039062 25.703125 32.285156 C 24.894531 33.210938 23.039062 33.742188 21.800781 33.390625 C 21.570312 33.324219 21.398438 33.199219 21.398438 32.960938 C 21.394531 32.703125 21.550781 32.542969 21.835938 32.503906 C 22.058594 32.476562 22.28125 32.460938 22.5625 32.4375 Z M 22.5625 32.4375 "/>
<path style=" stroke:none;fill-rule:nonzero;fill:rgb(0%,0%,0%);fill-opacity:1;" d="M 22.351562 15.539062 C 22.457031 15.214844 22.671875 15.101562 22.976562 15.160156 C 23.289062 15.21875 23.390625 15.433594 23.414062 15.699219 C 23.535156 17.054688 22.300781 18.183594 20.808594 18.078125 C 20.476562 18.054688 20.140625 17.980469 20.125 17.636719 C 20.105469 17.285156 20.433594 17.191406 20.769531 17.15625 C 22.03125 17.035156 22.308594 16.757812 22.351562 15.539062 Z M 22.351562 15.539062 "/>
</g>
</svg>
